<svg xmlns="http://www.w3.org/2000/svg" xmlns:xlink="http://www.w3.org/1999/xlink" width="2000" zoomAndPan="magnify" viewBox="0 0 1500 1499.999933" height="2000" preserveAspectRatio="xMidYMid meet" version="1.0"><defs><g/><clipPath id="5c8853a25f"><rect x="0" width="205" y="0" height="412"/></clipPath><clipPath id="16f2ecc4f0"><path d="M 306.230469 408.195312 L 459.585938 408.195312 L 459.585938 432.421875 L 306.230469 432.421875 Z M 306.230469 408.195312 " clip-rule="nonzero"/></clipPath><clipPath id="b53c0cdc88"><path d="M 0.230469 0.195312 L 153.585938 0.195312 L 153.585938 24.421875 L 0.230469 24.421875 Z M 0.230469 0.195312 " clip-rule="nonzero"/></clipPath><clipPath id="9ae4d62a5c"><rect x="0" width="154" y="0" height="25"/></clipPath><clipPath id="f1c856c470"><path d="M 701.445312 142.046875 L 770.253906 142.046875 L 770.253906 204.289062 L 701.445312 204.289062 Z M 701.445312 142.046875 " clip-rule="nonzero"/></clipPath><clipPath id="eb92d852f2"><path d="M 769.246094 155.199219 C 767.082031 147.84375 760.089844 142.046875 751.820312 142.046875 C 744.878906 142.046875 738.851562 145.960938 735.800781 151.714844 C 732.753906 145.960938 726.722656 142.046875 719.785156 142.046875 C 711.136719 142.046875 703.570312 147.84375 702.085938 156.257812 C 698.320312 177.597656 722.1875 194.300781 735.855469 204.289062 C 748.492188 195.054688 775.4375 176.226562 769.246094 155.199219 Z M 769.246094 155.199219 " clip-rule="nonzero"/></clipPath><clipPath id="41734e75cb"><path d="M 0.640625 0.046875 L 69.253906 0.046875 L 69.253906 62.289062 L 0.640625 62.289062 Z M 0.640625 0.046875 " clip-rule="nonzero"/></clipPath><clipPath id="7c43216db1"><path d="M 68.246094 13.199219 C 66.082031 5.84375 59.089844 0.046875 50.820312 0.046875 C 43.878906 0.046875 37.851562 3.960938 34.800781 9.714844 C 31.753906 3.960938 25.722656 0.046875 18.785156 0.046875 C 10.136719 0.046875 2.570312 5.84375 1.085938 14.257812 C -2.679688 35.597656 21.1875 52.300781 34.855469 62.289062 C 47.492188 53.054688 74.4375 34.226562 68.246094 13.199219 Z M 68.246094 13.199219 " clip-rule="nonzero"/></clipPath><clipPath id="0008a991f5"><rect x="0" width="70" y="0" height="63"/></clipPath><clipPath id="e7822cce30"><path d="M 0.359375 124 L 284 124 L 284 536 L 0.359375 536 Z M 0.359375 124 " clip-rule="nonzero"/></clipPath><clipPath id="d043b94f14"><rect x="0" width="284" y="0" height="412"/></clipPath><clipPath id="7aaa3239be"><rect x="0" width="240" y="0" height="415"/></clipPath><clipPath id="6e04aa5246"><rect x="0" width="93" y="0" height="275"/></clipPath><clipPath id="d37ef41b4a"><path d="M 760 0.398438 L 1207.078125 0.398438 L 1207.078125 571.601562 L 760 571.601562 Z M 760 0.398438 " clip-rule="nonzero"/></clipPath><clipPath id="88d17ee785"><rect x="0" width="448" y="0" height="572"/></clipPath><clipPath id="e04e52b3e9"><rect x="0" width="1208" y="0" height="572"/></clipPath></defs><rect x="-150" width="1800" fill="#ffffff" y="-149.999993" height="1799.99992" fill-opacity="1"/><rect x="-150" width="1800" fill="#f6f4f0" y="-149.999993" height="1799.99992" fill-opacity="1"/><g transform="matrix(1, 0, 0, 1, 141, 464)"><g clip-path="url(#e04e52b3e9)"><g transform="matrix(1, 0, 0, 1, 273, 48)"><g clip-path="url(#5c8853a25f)"><g fill="#6f4e37" fill-opacity="1"><g transform="translate(0.16658, 306.789052)"><g><path d="M 108.484375 -206.640625 C 125.804688 -206.640625 141.546875 -201.960938 155.703125 -192.609375 C 169.867188 -183.265625 181.210938 -170.6875 189.734375 -154.875 C 198.253906 -139.070312 202.515625 -121.546875 202.515625 -102.296875 C 202.515625 -83.046875 198.253906 -65.515625 189.734375 -49.703125 C 181.210938 -33.890625 169.867188 -21.304688 155.703125 -11.953125 C 141.546875 -2.609375 125.804688 2.0625 108.484375 2.0625 C 91.160156 2.0625 75.414062 -2.609375 61.25 -11.953125 C 47.09375 -21.304688 35.75 -33.890625 27.21875 -49.703125 C 18.695312 -65.515625 14.4375 -83.046875 14.4375 -102.296875 C 14.4375 -121.546875 18.695312 -139.070312 27.21875 -154.875 C 35.75 -170.6875 47.09375 -183.265625 61.25 -192.609375 C 75.414062 -201.960938 91.160156 -206.640625 108.484375 -206.640625 Z M 108.484375 -0.40625 C 129.648438 -0.40625 140.234375 -34.367188 140.234375 -102.296875 C 140.234375 -170.210938 129.648438 -204.171875 108.484375 -204.171875 C 87.035156 -204.171875 76.3125 -170.210938 76.3125 -102.296875 C 76.3125 -34.367188 87.035156 -0.40625 108.484375 -0.40625 Z M 108.484375 -0.40625 "/></g></g></g></g></g><g clip-path="url(#16f2ecc4f0)"><g transform="matrix(1, 0, 0, 1, 306, 408)"><g clip-path="url(#9ae4d62a5c)"><g clip-path="url(#b53c0cdc88)"><path fill="#6f4e37" d="M 0.230469 0.195312 L 153.621094 0.195312 L 153.621094 24.421875 L 0.230469 24.421875 Z M 0.230469 0.195312 " fill-opacity="1" fill-rule="nonzero"/></g></g></g></g><g clip-path="url(#f1c856c470)"><g clip-path="url(#eb92d852f2)"><g transform="matrix(1, 0, 0, 1, 701, 142)"><g clip-path="url(#0008a991f5)"><g clip-path="url(#41734e75cb)"><g clip-path="url(#7c43216db1)"><path fill="#6f4e37" d="M 0.6875 0.046875 L 69.253906 0.046875 L 69.253906 62.289062 L 0.6875 62.289062 Z M 0.6875 0.046875 " fill-opacity="1" fill-rule="nonzero"/></g></g></g></g></g></g><g clip-path="url(#e7822cce30)"><g transform="matrix(1, 0, 0, 1, 0, 124)"><g clip-path="url(#d043b94f14)"><g fill="#6f4e37" fill-opacity="1"><g transform="translate(0.544474, 306.938156)"><g><path d="M 151.78125 -288.734375 C 169.65625 -288.734375 186.429688 -285.019531 202.109375 -277.59375 C 217.785156 -270.164062 231.601562 -259.78125 243.5625 -246.4375 C 255.519531 -233.101562 264.867188 -217.707031 271.609375 -200.25 C 278.347656 -182.789062 281.71875 -164.160156 281.71875 -144.359375 C 281.71875 -124.566406 278.347656 -105.9375 271.609375 -88.46875 C 264.867188 -71.007812 255.519531 -55.609375 243.5625 -42.265625 C 231.601562 -28.929688 217.785156 -18.550781 202.109375 -11.125 C 186.429688 -3.707031 169.65625 0 151.78125 0 L 12.375 0 L 12.375 -2.46875 C 19.25 -2.46875 25.09375 -4.875 29.90625 -9.6875 C 34.71875 -14.5 37.125 -20.34375 37.125 -27.21875 L 37.125 -261.5 C 37.125 -268.375 34.71875 -274.21875 29.90625 -279.03125 C 25.09375 -283.84375 19.25 -286.25 12.375 -286.25 L 12.375 -288.734375 Z M 122.5 -2.46875 C 133.78125 -2.46875 144.367188 -6.109375 154.265625 -13.390625 C 164.160156 -20.679688 172.890625 -30.859375 180.453125 -43.921875 C 188.015625 -56.984375 193.925781 -72.109375 198.1875 -89.296875 C 202.445312 -106.484375 204.578125 -124.835938 204.578125 -144.359375 C 204.578125 -163.890625 202.445312 -182.242188 198.1875 -199.421875 C 193.925781 -216.609375 188.015625 -231.734375 180.453125 -244.796875 C 172.890625 -257.859375 164.160156 -268.03125 154.265625 -275.3125 C 144.367188 -282.601562 133.78125 -286.25 122.5 -286.25 L 109.71875 -286.25 L 109.71875 -2.46875 Z M 122.5 -2.46875 "/></g></g></g></g></g></g><g transform="matrix(1, 0, 0, 1, 459, 123)"><g clip-path="url(#7aaa3239be)"><g fill="#6f4e37" fill-opacity="1"><g transform="translate(0.586505, 311.306512)"><g><path d="M 235.515625 -79.609375 C 236.335938 -68.609375 234.066406 -58.226562 228.703125 -48.46875 C 223.335938 -38.707031 215.566406 -30.25 205.390625 -23.09375 C 195.222656 -15.945312 183.472656 -10.3125 170.140625 -6.1875 C 156.804688 -2.0625 142.710938 0 127.859375 0 C 108.609375 0 90.800781 -3.160156 74.4375 -9.484375 C 58.082031 -15.804688 45.023438 -24.328125 35.265625 -35.046875 C 25.503906 -45.773438 20.625 -57.878906 20.625 -71.359375 C 20.625 -83.453125 24.953125 -93.828125 33.609375 -102.484375 C 42.273438 -111.148438 52.65625 -115.484375 64.75 -115.484375 C 76.851562 -115.484375 87.234375 -111.148438 95.890625 -102.484375 C 104.554688 -93.828125 108.890625 -83.453125 108.890625 -71.359375 C 108.890625 -63.660156 107.515625 -57.332031 104.765625 -52.375 C 102.015625 -47.425781 98.921875 -43.300781 95.484375 -40 C 92.046875 -36.707031 89.15625 -33.546875 86.8125 -30.515625 C 84.476562 -27.492188 83.722656 -24.054688 84.546875 -20.203125 C 85.648438 -14.984375 89.773438 -10.722656 96.921875 -7.421875 C 104.078125 -4.117188 114.390625 -2.46875 127.859375 -2.46875 C 135.003906 -2.46875 141.738281 -4.1875 148.0625 -7.625 C 154.394531 -11.0625 159.550781 -15.734375 163.53125 -21.640625 C 167.519531 -27.554688 169.515625 -34.226562 169.515625 -41.65625 C 169.515625 -52.101562 165.941406 -62 158.796875 -71.34375 C 151.648438 -80.695312 142.4375 -89.84375 131.15625 -98.78125 C 119.882812 -107.71875 107.851562 -116.722656 95.0625 -125.796875 C 82.28125 -134.867188 70.25 -144.351562 58.96875 -154.25 C 47.695312 -164.15625 38.488281 -174.609375 31.34375 -185.609375 C 24.195312 -196.609375 20.625 -208.566406 20.625 -221.484375 C 20.625 -233.859375 23.921875 -244.304688 30.515625 -252.828125 C 37.117188 -261.359375 45.710938 -268.300781 56.296875 -273.65625 C 66.878906 -279.019531 78.289062 -282.867188 90.53125 -285.203125 C 102.769531 -287.546875 114.390625 -288.71875 125.390625 -288.71875 C 138.585938 -288.71875 150.132812 -287.753906 160.03125 -285.828125 C 169.925781 -283.898438 180.648438 -282.9375 192.203125 -282.9375 C 196.878906 -282.9375 201.070312 -283.347656 204.78125 -284.171875 C 208.488281 -285.003906 211.71875 -286.519531 214.46875 -288.71875 L 216.953125 -288.71875 L 216.953125 -210.765625 C 216.953125 -210.765625 216.675781 -210.765625 216.125 -210.765625 C 215.570312 -210.765625 215.019531 -210.765625 214.46875 -210.765625 C 212.269531 -222.316406 207.597656 -233.863281 200.453125 -245.40625 C 193.304688 -256.957031 184.234375 -266.582031 173.234375 -274.28125 C 162.234375 -281.976562 149.582031 -285.828125 135.28125 -285.828125 C 124.832031 -285.828125 115.484375 -283.144531 107.234375 -277.78125 C 98.984375 -272.425781 94.445312 -263.5625 93.625 -251.1875 C 92.800781 -240.457031 95.484375 -230.554688 101.671875 -221.484375 C 107.859375 -212.410156 116.175781 -203.679688 126.625 -195.296875 C 137.070312 -186.910156 148.273438 -178.523438 160.234375 -170.140625 C 172.203125 -161.753906 183.679688 -153.019531 194.671875 -143.9375 C 205.671875 -134.863281 214.953125 -125.101562 222.515625 -114.65625 C 230.078125 -104.207031 234.410156 -92.523438 235.515625 -79.609375 Z M 235.515625 -79.609375 "/></g></g></g></g></g><g transform="matrix(1, 0, 0, 1, 686, 226)"><g clip-path="url(#6e04aa5246)"><g fill="#6f4e37" fill-opacity="1"><g transform="translate(0.886519, 205.136368)"><g><path d="M 89.8125 -190.609375 C 85.238281 -190.609375 81.300781 -189.003906 78 -185.796875 C 74.707031 -182.597656 73.0625 -178.707031 73.0625 -174.125 L 73.0625 -18.125 C 73.0625 -13.550781 74.707031 -9.660156 78 -6.453125 C 81.300781 -3.242188 85.238281 -1.640625 89.8125 -1.640625 L 89.8125 0 L 8.234375 0 L 8.234375 -1.640625 C 12.816406 -1.640625 16.707031 -3.242188 19.90625 -6.453125 C 23.113281 -9.660156 24.71875 -13.550781 24.71875 -18.125 L 24.71875 -174.125 C 24.71875 -178.707031 23.113281 -182.597656 19.90625 -185.796875 C 16.707031 -189.003906 12.816406 -190.609375 8.234375 -190.609375 L 8.234375 -192.265625 L 89.8125 -192.265625 Z M 89.8125 -190.609375 "/></g></g></g></g></g><g clip-path="url(#d37ef41b4a)"><g transform="matrix(1, 0, 0, 1, 760, 0.000000000000113687)"><g clip-path="url(#88d17ee785)"><g fill="#6f4e37" fill-opacity="1"><g transform="translate(1.017456, 428.689603)"><g><path d="M 422.03125 -31.28125 C 422.03125 -24.457031 424.304688 -18.390625 428.859375 -13.078125 C 433.410156 -7.773438 438.910156 -4.550781 445.359375 -3.40625 L 445.359375 0 L 313.390625 0 L 313.390625 -3.40625 C 319.835938 -4.550781 325.335938 -7.773438 329.890625 -13.078125 C 334.441406 -18.390625 336.71875 -24.457031 336.71875 -31.28125 L 336.71875 -199.078125 C 336.71875 -208.929688 339.179688 -216.703125 344.109375 -222.390625 C 349.035156 -228.078125 353.960938 -233.476562 358.890625 -238.59375 C 363.828125 -243.71875 366.296875 -249.691406 366.296875 -256.515625 C 366.296875 -262.960938 362.597656 -267.890625 355.203125 -271.296875 C 347.804688 -274.710938 338.613281 -276.421875 327.625 -276.421875 C 311.3125 -276.421875 296.800781 -273.671875 284.09375 -268.171875 C 271.394531 -262.679688 263.34375 -258.609375 259.9375 -255.953125 C 268.28125 -244.191406 272.453125 -227.882812 272.453125 -207.03125 L 272.453125 -31.28125 C 272.453125 -24.457031 274.722656 -18.390625 279.265625 -13.078125 C 283.816406 -7.773438 289.316406 -4.550781 295.765625 -3.40625 L 295.765625 0 L 163.8125 0 L 163.8125 -3.40625 C 170.257812 -4.550781 175.753906 -7.773438 180.296875 -13.078125 C 184.847656 -18.390625 187.125 -24.457031 187.125 -31.28125 L 187.125 -199.078125 C 187.125 -208.929688 189.585938 -216.703125 194.515625 -222.390625 C 199.453125 -228.078125 204.382812 -233.476562 209.3125 -238.59375 C 214.238281 -243.71875 216.703125 -249.691406 216.703125 -256.515625 C 216.703125 -262.960938 213.097656 -267.890625 205.890625 -271.296875 C 198.691406 -274.710938 189.40625 -276.421875 178.03125 -276.421875 C 160.582031 -276.421875 142.191406 -272.0625 122.859375 -263.34375 L 122.859375 -31.28125 C 122.859375 -24.457031 125.128906 -18.390625 129.671875 -13.078125 C 134.222656 -7.773438 139.722656 -4.550781 146.171875 -3.40625 L 146.171875 0 L 14.21875 0 L 14.21875 -3.40625 C 20.664062 -4.550781 26.164062 -7.773438 30.71875 -13.078125 C 35.269531 -18.390625 37.546875 -24.457031 37.546875 -31.28125 L 37.546875 -233.765625 C 37.546875 -240.972656 35.269531 -247.132812 30.71875 -252.25 C 26.164062 -257.375 20.664062 -260.503906 14.21875 -261.640625 L 14.21875 -265.046875 L 111.484375 -279.265625 C 111.859375 -279.265625 112.140625 -279.265625 112.328125 -279.265625 C 112.523438 -279.265625 112.8125 -279.265625 113.1875 -279.265625 C 119.632812 -279.265625 122.859375 -276.046875 122.859375 -269.609375 L 122.859375 -267.328125 C 132.710938 -272.253906 143.894531 -276.328125 156.40625 -279.546875 C 168.925781 -282.773438 181.628906 -284.578125 194.515625 -284.953125 C 207.410156 -285.335938 219.453125 -283.535156 230.640625 -279.546875 C 241.828125 -275.566406 251.023438 -268.648438 258.234375 -258.796875 C 271.878906 -267.898438 286.664062 -274.535156 302.59375 -278.703125 C 318.519531 -282.867188 332.738281 -284.953125 345.25 -284.953125 C 358.894531 -284.953125 371.5 -282.488281 383.0625 -277.5625 C 394.632812 -272.632812 404.019531 -264.578125 411.21875 -253.390625 C 418.425781 -242.203125 422.03125 -226.75 422.03125 -207.03125 Z M 422.03125 -31.28125 "/></g></g></g></g></g></g></g></g></svg>