<svg xmlns="http://www.w3.org/2000/svg" xmlns:xlink="http://www.w3.org/1999/xlink" width="1920" zoomAndPan="magnify" viewBox="0 0 1440 809.999993" height="1080" preserveAspectRatio="xMidYMid meet" version="1.0"><defs><g/><clipPath id="b0b1aaf7cf"><rect x="0" width="247" y="0" height="495"/></clipPath><clipPath id="7540a275a2"><path d="M 356.675781 489.640625 L 540.703125 489.640625 L 540.703125 518.710938 L 356.675781 518.710938 Z M 356.675781 489.640625 " clip-rule="nonzero"/></clipPath><clipPath id="3259af4088"><path d="M 0.675781 0.640625 L 184.703125 0.640625 L 184.703125 29.710938 L 0.675781 29.710938 Z M 0.675781 0.640625 " clip-rule="nonzero"/></clipPath><clipPath id="669a94b3b6"><rect x="0" width="185" y="0" height="30"/></clipPath><clipPath id="a04b7e8549"><path d="M 831 170.261719 L 913.503906 170.261719 L 913.503906 244.953125 L 831 244.953125 Z M 831 170.261719 " clip-rule="nonzero"/></clipPath><clipPath id="34b5bc0394"><path d="M 912.296875 186.042969 C 909.695312 177.21875 901.308594 170.261719 891.386719 170.261719 C 883.058594 170.261719 875.820312 174.960938 872.164062 181.863281 C 868.503906 174.960938 861.269531 170.261719 852.941406 170.261719 C 842.5625 170.261719 833.488281 177.21875 831.703125 187.316406 C 827.1875 212.921875 855.828125 232.96875 872.226562 244.953125 C 887.390625 233.871094 919.726562 211.277344 912.296875 186.042969 Z M 912.296875 186.042969 " clip-rule="nonzero"/></clipPath><clipPath id="3624c628d5"><path d="M 0.121094 0.261719 L 82.503906 0.261719 L 82.503906 74.953125 L 0.121094 74.953125 Z M 0.121094 0.261719 " clip-rule="nonzero"/></clipPath><clipPath id="9ba2cce66c"><path d="M 81.296875 16.042969 C 78.695312 7.21875 70.308594 0.261719 60.386719 0.261719 C 52.058594 0.261719 44.820312 4.960938 41.164062 11.863281 C 37.503906 4.960938 30.269531 0.261719 21.941406 0.261719 C 11.5625 0.261719 2.488281 7.21875 0.703125 17.316406 C -3.8125 42.921875 24.828125 62.96875 41.226562 74.953125 C 56.390625 63.871094 88.726562 41.277344 81.296875 16.042969 Z M 81.296875 16.042969 " clip-rule="nonzero"/></clipPath><clipPath id="1385757400"><rect x="0" width="83" y="0" height="75"/></clipPath><clipPath id="ff0f5b7262"><rect x="0" width="330" y="0" height="494"/></clipPath><clipPath id="e4d33d8652"><rect x="0" width="288" y="0" height="498"/></clipPath><clipPath id="d6c97de997"><rect x="0" width="358" y="0" height="79"/></clipPath><clipPath id="63f1117c79"><rect x="0" width="111" y="0" height="329"/></clipPath><clipPath id="31e042107b"><path d="M 902 0.519531 L 1437.601562 0.519531 L 1437.601562 685.480469 L 902 685.480469 Z M 902 0.519531 " clip-rule="nonzero"/></clipPath><clipPath id="6df4df1650"><rect x="0" width="536" y="0" height="686"/></clipPath><clipPath id="13c8d476ee"><rect x="0" width="1438" y="0" height="686"/></clipPath></defs><g transform="matrix(1, 0, 0, 1, 0, 65)"><g clip-path="url(#13c8d476ee)"><g transform="matrix(1, 0, 0, 1, 316, 57)"><g clip-path="url(#b0b1aaf7cf)"><g fill="#6f4e37" fill-opacity="1"><g transform="translate(0.999854, 368.55287)"><g><path d="M 130.171875 -247.96875 C 150.960938 -247.96875 169.851562 -242.359375 186.84375 -231.140625 C 203.832031 -219.921875 217.441406 -204.820312 227.671875 -185.84375 C 237.898438 -166.875 243.015625 -145.84375 243.015625 -122.75 C 243.015625 -99.65625 237.898438 -78.617188 227.671875 -59.640625 C 217.441406 -40.671875 203.832031 -25.578125 186.84375 -14.359375 C 169.851562 -3.140625 150.960938 2.46875 130.171875 2.46875 C 109.378906 2.46875 90.488281 -3.140625 73.5 -14.359375 C 56.507812 -25.578125 42.898438 -40.671875 32.671875 -59.640625 C 22.441406 -78.617188 17.328125 -99.65625 17.328125 -122.75 C 17.328125 -145.84375 22.441406 -166.875 32.671875 -185.84375 C 42.898438 -204.820312 56.507812 -219.921875 73.5 -231.140625 C 90.488281 -242.359375 109.378906 -247.96875 130.171875 -247.96875 Z M 130.171875 -0.5 C 155.578125 -0.5 168.28125 -41.25 168.28125 -122.75 C 168.28125 -204.25 155.578125 -245 130.171875 -245 C 104.429688 -245 91.5625 -204.25 91.5625 -122.75 C 91.5625 -41.25 104.429688 -0.5 130.171875 -0.5 Z M 130.171875 -0.5 "/></g></g></g></g></g><g clip-path="url(#7540a275a2)"><g transform="matrix(1, 0, 0, 1, 356, 489)"><g clip-path="url(#669a94b3b6)"><g clip-path="url(#3259af4088)"><path fill="#6f4e37" d="M 0.675781 0.640625 L 184.746094 0.640625 L 184.746094 29.710938 L 0.675781 29.710938 Z M 0.675781 0.640625 " fill-opacity="1" fill-rule="nonzero"/></g></g></g></g><g clip-path="url(#a04b7e8549)"><g clip-path="url(#34b5bc0394)"><g transform="matrix(1, 0, 0, 1, 831, 170)"><g clip-path="url(#1385757400)"><g clip-path="url(#3624c628d5)"><g clip-path="url(#9ba2cce66c)"><path fill="#6f4e37" d="M 0.226562 0.261719 L 82.503906 0.261719 L 82.503906 74.953125 L 0.226562 74.953125 Z M 0.226562 0.261719 " fill-opacity="1" fill-rule="nonzero"/></g></g></g></g></g></g><g transform="matrix(1, 0, 0, 1, 0, 149)"><g clip-path="url(#ff0f5b7262)"><g fill="#6f4e37" fill-opacity="1"><g transform="translate(-10.146646, 367.931752)"><g><path d="M 182.140625 -346.46875 C 203.585938 -346.46875 223.710938 -342.007812 242.515625 -333.09375 C 261.328125 -324.1875 277.910156 -311.734375 292.265625 -295.734375 C 306.617188 -279.734375 317.835938 -261.253906 325.921875 -240.296875 C 334.003906 -219.347656 338.046875 -196.992188 338.046875 -173.234375 C 338.046875 -149.472656 334.003906 -127.113281 325.921875 -106.15625 C 317.835938 -85.207031 306.617188 -66.734375 292.265625 -50.734375 C 277.910156 -34.734375 261.328125 -22.273438 242.515625 -13.359375 C 223.710938 -4.453125 203.585938 0 182.140625 0 L 14.84375 0 L 14.84375 -2.96875 C 23.09375 -2.96875 30.101562 -5.851562 35.875 -11.625 C 41.65625 -17.40625 44.546875 -24.421875 44.546875 -32.671875 L 44.546875 -313.796875 C 44.546875 -322.046875 41.65625 -329.054688 35.875 -334.828125 C 30.101562 -340.609375 23.09375 -343.5 14.84375 -343.5 L 14.84375 -346.46875 Z M 147 -2.96875 C 160.53125 -2.96875 173.234375 -7.335938 185.109375 -16.078125 C 196.992188 -24.828125 207.472656 -37.035156 216.546875 -52.703125 C 225.617188 -68.378906 232.710938 -86.53125 237.828125 -107.15625 C 242.941406 -127.78125 245.5 -149.804688 245.5 -173.234375 C 245.5 -196.660156 242.941406 -218.6875 237.828125 -239.3125 C 232.710938 -259.9375 225.617188 -278.082031 216.546875 -293.75 C 207.472656 -309.425781 196.992188 -321.632812 185.109375 -330.375 C 173.234375 -339.125 160.53125 -343.5 147 -343.5 L 131.65625 -343.5 L 131.65625 -2.96875 Z M 147 -2.96875 "/></g></g></g></g></g><g transform="matrix(1, 0, 0, 1, 540, 148)"><g clip-path="url(#e4d33d8652)"><g fill="#6f4e37" fill-opacity="1"><g transform="translate(0.70369, 372.973764)"><g><path d="M 282.609375 -95.515625 C 283.597656 -82.316406 280.875 -69.859375 274.4375 -58.140625 C 268.007812 -46.429688 258.691406 -36.285156 246.484375 -27.703125 C 234.273438 -19.128906 220.164062 -12.367188 204.15625 -7.421875 C 188.15625 -2.472656 171.25 0 153.4375 0 C 130.332031 0 108.960938 -3.789062 89.328125 -11.375 C 69.703125 -18.96875 54.03125 -29.195312 42.3125 -42.0625 C 30.601562 -54.9375 24.75 -69.457031 24.75 -85.625 C 24.75 -100.144531 29.941406 -112.597656 40.328125 -122.984375 C 50.722656 -133.378906 63.179688 -138.578125 77.703125 -138.578125 C 92.222656 -138.578125 104.675781 -133.378906 115.0625 -122.984375 C 125.457031 -112.597656 130.65625 -100.144531 130.65625 -85.625 C 130.65625 -76.382812 129.003906 -68.796875 125.703125 -62.859375 C 122.410156 -56.921875 118.703125 -51.96875 114.578125 -48 C 110.453125 -44.039062 106.988281 -40.25 104.1875 -36.625 C 101.382812 -33 100.476562 -28.875 101.46875 -24.25 C 102.78125 -17.976562 107.722656 -12.863281 116.296875 -8.90625 C 124.878906 -4.945312 137.257812 -2.96875 153.4375 -2.96875 C 162.007812 -2.96875 170.085938 -5.03125 177.671875 -9.15625 C 185.265625 -13.28125 191.453125 -18.890625 196.234375 -25.984375 C 201.023438 -33.078125 203.421875 -41.078125 203.421875 -49.984375 C 203.421875 -62.523438 199.128906 -74.40625 190.546875 -85.625 C 181.972656 -96.84375 170.921875 -107.8125 157.390625 -118.53125 C 143.859375 -129.257812 129.421875 -140.066406 114.078125 -150.953125 C 98.734375 -161.835938 84.296875 -173.21875 70.765625 -185.09375 C 57.242188 -196.976562 46.191406 -209.519531 37.609375 -222.71875 C 29.035156 -235.914062 24.75 -250.269531 24.75 -265.78125 C 24.75 -280.625 28.707031 -293.160156 36.625 -303.390625 C 44.539062 -313.617188 54.847656 -321.953125 67.546875 -328.390625 C 80.253906 -334.828125 93.945312 -339.445312 108.625 -342.25 C 123.3125 -345.050781 137.257812 -346.453125 150.46875 -346.453125 C 166.300781 -346.453125 180.15625 -345.296875 192.03125 -342.984375 C 203.914062 -340.679688 216.785156 -339.53125 230.640625 -339.53125 C 236.253906 -339.53125 241.285156 -340.023438 245.734375 -341.015625 C 250.191406 -342.003906 254.070312 -343.816406 257.375 -346.453125 L 260.34375 -346.453125 L 260.34375 -252.90625 C 260.34375 -252.90625 260.007812 -252.90625 259.34375 -252.90625 C 258.6875 -252.90625 258.03125 -252.90625 257.375 -252.90625 C 254.726562 -266.769531 249.113281 -280.628906 240.53125 -294.484375 C 231.957031 -308.347656 221.070312 -319.894531 207.875 -329.125 C 194.675781 -338.363281 179.5 -342.984375 162.34375 -342.984375 C 149.800781 -342.984375 138.578125 -339.765625 128.671875 -333.328125 C 118.773438 -326.898438 113.332031 -316.265625 112.34375 -301.421875 C 111.351562 -288.546875 114.570312 -276.664062 122 -265.78125 C 129.425781 -254.894531 139.40625 -244.414062 151.9375 -234.34375 C 164.476562 -224.28125 177.925781 -214.21875 192.28125 -204.15625 C 206.632812 -194.09375 220.410156 -183.617188 233.609375 -172.734375 C 246.804688 -161.847656 257.941406 -150.132812 267.015625 -137.59375 C 276.085938 -125.050781 281.285156 -111.023438 282.609375 -95.515625 Z M 282.609375 -95.515625 "/></g></g></g></g></g><g transform="matrix(1, 0, 0, 1, 510, 560)"><g clip-path="url(#d6c97de997)"><g fill="#6f4e37" fill-opacity="1"><g transform="translate(0.217577, 62.629621)"><g><path d="M 16.328125 0.921875 C 15.054688 0.921875 13.671875 0.703125 12.171875 0.265625 C 10.671875 -0.171875 9.25 -0.882812 7.90625 -1.875 C 6.5625 -2.875 5.457031 -4.222656 4.59375 -5.921875 C 3.738281 -7.617188 3.3125 -9.742188 3.3125 -12.296875 C 3.3125 -15.910156 4.015625 -19.414062 5.421875 -22.8125 C 6.828125 -26.207031 8.773438 -29.378906 11.265625 -32.328125 C 13.765625 -35.285156 16.632812 -37.875 19.875 -40.09375 C 23.113281 -42.320312 26.570312 -44.066406 30.25 -45.328125 C 33.9375 -46.585938 37.648438 -47.21875 41.390625 -47.21875 C 43.160156 -47.21875 45.054688 -47.082031 47.078125 -46.8125 C 49.109375 -46.550781 51.09375 -46.265625 53.03125 -45.953125 C 54.96875 -45.648438 56.597656 -45.429688 57.921875 -45.296875 L 52.109375 -39.9375 C 50.785156 -40.601562 49.21875 -41.375 47.40625 -42.25 C 45.601562 -43.132812 43.707031 -43.90625 41.71875 -44.5625 C 39.738281 -45.226562 37.800781 -45.5625 35.90625 -45.5625 C 33.351562 -45.5625 30.925781 -44.960938 28.625 -43.765625 C 26.332031 -42.578125 24.25 -40.945312 22.375 -38.875 C 20.507812 -36.8125 18.90625 -34.441406 17.5625 -31.765625 C 16.21875 -29.097656 15.179688 -26.300781 14.453125 -23.375 C 13.722656 -20.445312 13.359375 -17.550781 13.359375 -14.6875 C 13.359375 -11.6875 13.796875 -9.328125 14.671875 -7.609375 C 15.554688 -5.890625 16.648438 -4.675781 17.953125 -3.96875 C 19.253906 -3.257812 20.519531 -2.90625 21.75 -2.90625 C 23.164062 -2.90625 24.773438 -3.332031 26.578125 -4.1875 C 28.390625 -5.050781 30.242188 -6.144531 32.140625 -7.46875 C 34.035156 -8.789062 35.804688 -10.144531 37.453125 -11.53125 C 39.109375 -12.925781 40.46875 -14.148438 41.53125 -15.203125 L 41.859375 -14.875 C 40.535156 -13.550781 38.914062 -12.007812 37 -10.25 C 35.082031 -8.488281 32.976562 -6.75 30.6875 -5.03125 C 28.394531 -3.3125 26.023438 -1.890625 23.578125 -0.765625 C 21.128906 0.359375 18.710938 0.921875 16.328125 0.921875 Z M 16.328125 0.921875 "/></g></g></g><g fill="#6f4e37" fill-opacity="1"><g transform="translate(46.478811, 62.629621)"><g><path d="M 10.984375 0.46875 C 9.085938 0.46875 7.390625 0.171875 5.890625 -0.421875 C 4.390625 -1.023438 3.195312 -2.019531 2.3125 -3.40625 C 1.425781 -4.789062 0.984375 -6.695312 0.984375 -9.125 C 0.984375 -12.25 1.703125 -15.222656 3.140625 -18.046875 C 4.578125 -20.867188 6.492188 -23.359375 8.890625 -25.515625 C 11.296875 -27.679688 13.984375 -29.378906 16.953125 -30.609375 C 19.929688 -31.847656 22.960938 -32.46875 26.046875 -32.46875 C 27.941406 -32.46875 29.628906 -32.171875 31.109375 -31.578125 C 32.585938 -30.984375 33.765625 -29.988281 34.640625 -28.59375 C 35.523438 -27.207031 35.96875 -25.300781 35.96875 -22.875 C 35.96875 -19.75 35.25 -16.785156 33.8125 -13.984375 C 32.382812 -11.179688 30.46875 -8.6875 28.0625 -6.5 C 25.664062 -4.320312 22.988281 -2.613281 20.03125 -1.375 C 17.082031 -0.144531 14.066406 0.46875 10.984375 0.46875 Z M 15.140625 -0.984375 C 17.128906 -0.984375 18.894531 -1.703125 20.4375 -3.140625 C 21.976562 -4.578125 23.273438 -6.453125 24.328125 -8.765625 C 25.390625 -11.078125 26.195312 -13.554688 26.75 -16.203125 C 27.300781 -18.847656 27.578125 -21.359375 27.578125 -23.734375 C 27.578125 -26.335938 27.132812 -28.203125 26.25 -29.328125 C 25.363281 -30.453125 23.863281 -31.015625 21.75 -31.015625 C 19.769531 -31.015625 18.019531 -30.285156 16.5 -28.828125 C 14.976562 -27.367188 13.695312 -25.484375 12.65625 -23.171875 C 11.625 -20.859375 10.832031 -18.378906 10.28125 -15.734375 C 9.726562 -13.085938 9.453125 -10.578125 9.453125 -8.203125 C 9.453125 -5.640625 9.890625 -3.796875 10.765625 -2.671875 C 11.648438 -1.546875 13.109375 -0.984375 15.140625 -0.984375 Z M 15.140625 -0.984375 "/></g></g></g><g fill="#6f4e37" fill-opacity="1"><g transform="translate(83.421707, 62.629621)"><g><path d="M 39.671875 -31.28125 L 30.15625 -5.03125 C 30.019531 -4.632812 30.109375 -4.566406 30.421875 -4.828125 C 31.429688 -5.578125 32.507812 -6.398438 33.65625 -7.296875 C 34.800781 -8.203125 35.945312 -9.207031 37.09375 -10.3125 L 37.296875 -10.1875 L 28.96875 1.0625 L 20.4375 0 L 30.609375 -27.90625 C 30.960938 -28.789062 31.238281 -29.375 31.4375 -29.65625 C 31.632812 -29.945312 31.625 -30.09375 31.40625 -30.09375 C 31.1875 -30.09375 30.734375 -29.859375 30.046875 -29.390625 C 29.367188 -28.929688 28.3125 -28.039062 26.875 -26.71875 C 25.445312 -25.394531 23.5 -23.453125 21.03125 -20.890625 C 18.5625 -18.335938 15.410156 -14.945312 11.578125 -10.71875 L 7.40625 0.921875 L -0.328125 0 L 9.65625 -27.515625 C 9.914062 -28.253906 9.640625 -28.988281 8.828125 -29.71875 C 8.015625 -30.445312 6.347656 -31.1875 3.828125 -31.9375 L 3.828125 -32.078125 L 19.703125 -32.40625 L 17.59375 -27.515625 L 12.5625 -13.421875 L 31.46875 -33.125 C 32.570312 -33.164062 33.796875 -33.117188 35.140625 -32.984375 C 36.484375 -32.859375 37.617188 -32.648438 38.546875 -32.359375 C 39.472656 -32.078125 39.847656 -31.71875 39.671875 -31.28125 Z M 39.671875 -31.28125 "/></g></g></g><g fill="#6f4e37" fill-opacity="1"><g transform="translate(123.801147, 62.629621)"><g><path d="M 38.6875 -53.953125 C 40.445312 -53.953125 42.238281 -53.765625 44.0625 -53.390625 C 45.894531 -53.015625 48.09375 -52.519531 50.65625 -51.90625 L 45.5625 -47.9375 C 43.394531 -48.957031 41.351562 -49.894531 39.4375 -50.75 C 37.519531 -51.613281 35.660156 -52.046875 33.859375 -52.046875 C 31.960938 -52.046875 30.328125 -51.523438 28.953125 -50.484375 C 27.585938 -49.453125 26.429688 -48.085938 25.484375 -46.390625 C 24.535156 -44.691406 23.710938 -42.828125 23.015625 -40.796875 L 19.84375 -32.078125 L 26.640625 -32.078125 L 25.78125 -30.484375 L 19.3125 -30.484375 L 9.328125 -2.90625 C 8.359375 -0.21875 6.957031 2.179688 5.125 4.296875 C 3.289062 6.410156 1.207031 8.21875 -1.125 9.71875 C -3.457031 11.21875 -5.898438 12.351562 -8.453125 13.125 C -11.015625 13.894531 -13.488281 14.28125 -15.875 14.28125 C -17.632812 14.28125 -19.425781 14.082031 -21.25 13.6875 C -23.082031 13.289062 -25.28125 12.804688 -27.84375 12.234375 L -22.078125 8.265625 C -19.921875 9.234375 -17.992188 10.15625 -16.296875 11.03125 C -14.597656 11.914062 -12.847656 12.359375 -11.046875 12.359375 C -9.109375 12.359375 -7.460938 11.835938 -6.109375 10.796875 C -4.765625 9.765625 -3.617188 8.398438 -2.671875 6.703125 C -1.722656 5.015625 -0.898438 3.15625 -0.203125 1.125 L 10.109375 -27.578125 C 10.378906 -28.273438 10.09375 -28.988281 9.25 -29.71875 C 8.414062 -30.445312 6.65625 -31.1875 3.96875 -31.9375 L 3.96875 -32.078125 L 11.703125 -32.078125 L 13.421875 -36.765625 C 14.390625 -39.410156 15.785156 -41.800781 17.609375 -43.9375 C 19.441406 -46.070312 21.523438 -47.878906 23.859375 -49.359375 C 26.203125 -50.835938 28.648438 -51.972656 31.203125 -52.765625 C 33.765625 -53.554688 36.257812 -53.953125 38.6875 -53.953125 Z M 38.6875 -53.953125 "/></g></g></g><g fill="#6f4e37" fill-opacity="1"><g transform="translate(148.187458, 62.629621)"><g><path d="M 15.546875 -15.9375 L 9.65625 -13.359375 C 9.5625 -12.691406 9.484375 -12.050781 9.421875 -11.4375 C 9.359375 -10.820312 9.328125 -10.226562 9.328125 -9.65625 C 9.328125 -7.757812 9.554688 -6.335938 10.015625 -5.390625 C 10.484375 -4.441406 11.054688 -3.800781 11.734375 -3.46875 C 12.421875 -3.132812 13.09375 -2.96875 13.75 -2.96875 C 15.25 -2.96875 16.757812 -3.296875 18.28125 -3.953125 C 19.800781 -4.617188 21.320312 -5.4375 22.84375 -6.40625 C 24.363281 -7.382812 25.832031 -8.359375 27.25 -9.328125 L 27.578125 -9 C 26.429688 -7.9375 25.082031 -6.851562 23.53125 -5.75 C 21.988281 -4.644531 20.367188 -3.617188 18.671875 -2.671875 C 16.984375 -1.722656 15.289062 -0.960938 13.59375 -0.390625 C 11.894531 0.179688 10.335938 0.46875 8.921875 0.46875 C 7.691406 0.46875 6.4375 0.203125 5.15625 -0.328125 C 3.875 -0.859375 2.816406 -1.785156 1.984375 -3.109375 C 1.148438 -4.429688 0.734375 -6.257812 0.734375 -8.59375 C 0.734375 -11.457031 1.425781 -14.300781 2.8125 -17.125 C 4.195312 -19.945312 6.085938 -22.515625 8.484375 -24.828125 C 10.890625 -27.140625 13.644531 -28.988281 16.75 -30.375 C 19.863281 -31.769531 23.117188 -32.46875 26.515625 -32.46875 C 30.878906 -32.46875 33.0625 -31.273438 33.0625 -28.890625 C 33.0625 -27.742188 32.628906 -26.628906 31.765625 -25.546875 C 30.910156 -24.472656 29.785156 -23.453125 28.390625 -22.484375 C 27.003906 -21.515625 25.503906 -20.617188 23.890625 -19.796875 C 22.285156 -18.984375 20.742188 -18.242188 19.265625 -17.578125 C 17.796875 -16.921875 16.554688 -16.375 15.546875 -15.9375 Z M 21.5625 -31.015625 C 20.101562 -31.015625 18.742188 -30.53125 17.484375 -29.5625 C 16.234375 -28.59375 15.097656 -27.289062 14.078125 -25.65625 C 13.066406 -24.019531 12.195312 -22.242188 11.46875 -20.328125 C 10.738281 -18.410156 10.203125 -16.484375 9.859375 -14.546875 L 15.34375 -16.921875 C 17.0625 -17.671875 18.679688 -18.441406 20.203125 -19.234375 C 21.722656 -20.035156 22.945312 -20.984375 23.875 -22.078125 C 24.800781 -23.179688 25.265625 -24.550781 25.265625 -26.1875 C 25.265625 -26.757812 25.175781 -27.421875 25 -28.171875 C 24.820312 -28.921875 24.46875 -29.582031 23.9375 -30.15625 C 23.40625 -30.726562 22.613281 -31.015625 21.5625 -31.015625 Z M 21.5625 -31.015625 "/></g></g></g><g fill="#6f4e37" fill-opacity="1"><g transform="translate(180.173834, 62.629621)"><g><path d="M 13.296875 -41.390625 L 26.453125 -51.703125 L 27.375 -50.0625 L 13.75 -40.53125 Z M 8.140625 1.0625 L -0.328125 0 L 9.65625 -27.515625 C 9.914062 -28.253906 9.640625 -28.988281 8.828125 -29.71875 C 8.015625 -30.445312 6.347656 -31.1875 3.828125 -31.9375 L 3.828125 -32.078125 L 19.640625 -32.40625 L 17.59375 -27.515625 L 9.453125 -5.03125 C 9.316406 -4.757812 9.382812 -4.691406 9.65625 -4.828125 C 10.757812 -5.484375 11.835938 -6.285156 12.890625 -7.234375 C 13.953125 -8.179688 15.078125 -9.207031 16.265625 -10.3125 L 16.46875 -10.1875 Z M 8.140625 1.0625 "/></g></g></g><g fill="#6f4e37" fill-opacity="1"><g transform="translate(199.735722, 62.629621)"><g><path d="M 26.984375 -30.484375 L 19.171875 -30.484375 L 8.59375 -1.1875 L 17.65625 -1.453125 L 17.453125 -1.1875 L 7.796875 1.0625 L 6.421875 1.0625 L 0.203125 -0.59375 L 1.84375 -4.5625 L 13.09375 -35.4375 C 13.570312 -36.851562 13.238281 -37.535156 12.09375 -37.484375 C 10.945312 -37.441406 8.546875 -36.914062 4.890625 -35.90625 L 5.15625 -36.296875 L 24.59375 -43.78125 L 22.875 -40.796875 L 19.703125 -32.078125 L 27.90625 -32.078125 Z M 26.984375 -30.484375 "/></g></g></g><g fill="#6f4e37" fill-opacity="1"><g transform="translate(224.320267, 62.629621)"><g><path d="M 27.84375 -4.828125 C 28.894531 -5.535156 29.972656 -6.347656 31.078125 -7.265625 C 32.179688 -8.191406 33.328125 -9.207031 34.515625 -10.3125 L 34.71875 -10.1875 L 26.390625 1.0625 L 17.921875 0 L 28.703125 -29.75 C 27.992188 -30.195312 27.195312 -30.550781 26.3125 -30.8125 C 25.4375 -31.082031 24.554688 -31.21875 23.671875 -31.21875 C 21.640625 -31.21875 19.753906 -30.507812 18.015625 -29.09375 C 16.273438 -27.6875 14.742188 -25.867188 13.421875 -23.640625 C 12.097656 -21.410156 11.0625 -19.039062 10.3125 -16.53125 C 9.5625 -14.019531 9.1875 -11.640625 9.1875 -9.390625 C 9.1875 -7.453125 9.441406 -6.007812 9.953125 -5.0625 C 10.460938 -4.113281 11.066406 -3.492188 11.765625 -3.203125 C 12.472656 -2.921875 13.113281 -2.78125 13.6875 -2.78125 C 14.476562 -2.78125 15.210938 -2.898438 15.890625 -3.140625 C 16.578125 -3.378906 17.234375 -3.65625 17.859375 -3.96875 L 17.65625 -3.5 C 15.894531 -2 14.253906 -0.960938 12.734375 -0.390625 C 11.210938 0.179688 9.851562 0.46875 8.65625 0.46875 C 7.46875 0.46875 6.242188 0.203125 4.984375 -0.328125 C 3.734375 -0.859375 2.6875 -1.773438 1.84375 -3.078125 C 1.007812 -4.378906 0.59375 -6.148438 0.59375 -8.390625 C 0.59375 -11.210938 1.304688 -14.035156 2.734375 -16.859375 C 4.171875 -19.679688 6.15625 -22.269531 8.6875 -24.625 C 11.226562 -26.988281 14.140625 -28.882812 17.421875 -30.3125 C 20.703125 -31.75 24.175781 -32.46875 27.84375 -32.46875 C 28.851562 -32.46875 30.28125 -32.398438 32.125 -32.265625 C 33.976562 -32.140625 35.679688 -31.898438 37.234375 -31.546875 L 27.578125 -5.03125 C 27.535156 -4.9375 27.546875 -4.867188 27.609375 -4.828125 C 27.671875 -4.785156 27.75 -4.785156 27.84375 -4.828125 Z M 27.84375 -4.828125 "/></g></g></g><g fill="#6f4e37" fill-opacity="1"><g transform="translate(262.1223, 62.629621)"><g><path d="M 29.828125 -32.40625 C 31.015625 -32.40625 32.113281 -32.140625 33.125 -31.609375 L 22.8125 -20.890625 L 22.546875 -20.890625 C 24.085938 -22.921875 24.828125 -24.597656 24.765625 -25.921875 C 24.703125 -27.242188 24.070312 -27.90625 22.875 -27.90625 C 21.726562 -27.90625 20.601562 -27.394531 19.5 -26.375 C 18.40625 -25.363281 17.382812 -24.066406 16.4375 -22.484375 C 15.488281 -20.898438 14.640625 -19.203125 13.890625 -17.390625 L 7.28125 0.921875 L -0.390625 0 L 9.65625 -27.515625 C 9.914062 -28.253906 9.640625 -28.988281 8.828125 -29.71875 C 8.015625 -30.445312 6.347656 -31.1875 3.828125 -31.9375 L 3.828125 -32.078125 L 19.703125 -32.40625 L 17.59375 -27.515625 L 16.796875 -25.390625 L 17.515625 -25.390625 C 18.972656 -27.503906 20.816406 -29.203125 23.046875 -30.484375 C 25.273438 -31.765625 27.535156 -32.40625 29.828125 -32.40625 Z M 29.828125 -32.40625 "/></g></g></g><g fill="#6f4e37" fill-opacity="1"><g transform="translate(291.200818, 62.629621)"><g><path d="M 13.296875 -41.390625 L 26.453125 -51.703125 L 27.375 -50.0625 L 13.75 -40.53125 Z M 8.140625 1.0625 L -0.328125 0 L 9.65625 -27.515625 C 9.914062 -28.253906 9.640625 -28.988281 8.828125 -29.71875 C 8.015625 -30.445312 6.347656 -31.1875 3.828125 -31.9375 L 3.828125 -32.078125 L 19.640625 -32.40625 L 17.59375 -27.515625 L 9.453125 -5.03125 C 9.316406 -4.757812 9.382812 -4.691406 9.65625 -4.828125 C 10.757812 -5.484375 11.835938 -6.285156 12.890625 -7.234375 C 13.953125 -8.179688 15.078125 -9.207031 16.265625 -10.3125 L 16.46875 -10.1875 Z M 8.140625 1.0625 "/></g></g></g><g fill="#6f4e37" fill-opacity="1"><g transform="translate(310.762706, 62.629621)"><g><path d="M 27.84375 -4.828125 C 28.894531 -5.535156 29.972656 -6.347656 31.078125 -7.265625 C 32.179688 -8.191406 33.328125 -9.207031 34.515625 -10.3125 L 34.71875 -10.1875 L 26.390625 1.0625 L 17.921875 0 L 28.703125 -29.75 C 27.992188 -30.195312 27.195312 -30.550781 26.3125 -30.8125 C 25.4375 -31.082031 24.554688 -31.21875 23.671875 -31.21875 C 21.640625 -31.21875 19.753906 -30.507812 18.015625 -29.09375 C 16.273438 -27.6875 14.742188 -25.867188 13.421875 -23.640625 C 12.097656 -21.410156 11.0625 -19.039062 10.3125 -16.53125 C 9.5625 -14.019531 9.1875 -11.640625 9.1875 -9.390625 C 9.1875 -7.453125 9.441406 -6.007812 9.953125 -5.0625 C 10.460938 -4.113281 11.066406 -3.492188 11.765625 -3.203125 C 12.472656 -2.921875 13.113281 -2.78125 13.6875 -2.78125 C 14.476562 -2.78125 15.210938 -2.898438 15.890625 -3.140625 C 16.578125 -3.378906 17.234375 -3.65625 17.859375 -3.96875 L 17.65625 -3.5 C 15.894531 -2 14.253906 -0.960938 12.734375 -0.390625 C 11.210938 0.179688 9.851562 0.46875 8.65625 0.46875 C 7.46875 0.46875 6.242188 0.203125 4.984375 -0.328125 C 3.734375 -0.859375 2.6875 -1.773438 1.84375 -3.078125 C 1.007812 -4.378906 0.59375 -6.148438 0.59375 -8.390625 C 0.59375 -11.210938 1.304688 -14.035156 2.734375 -16.859375 C 4.171875 -19.679688 6.15625 -22.269531 8.6875 -24.625 C 11.226562 -26.988281 14.140625 -28.882812 17.421875 -30.3125 C 20.703125 -31.75 24.175781 -32.46875 27.84375 -32.46875 C 28.851562 -32.46875 30.28125 -32.398438 32.125 -32.265625 C 33.976562 -32.140625 35.679688 -31.898438 37.234375 -31.546875 L 27.578125 -5.03125 C 27.535156 -4.9375 27.546875 -4.867188 27.609375 -4.828125 C 27.671875 -4.785156 27.75 -4.785156 27.84375 -4.828125 Z M 27.84375 -4.828125 "/></g></g></g></g></g><g transform="matrix(1, 0, 0, 1, 813, 272)"><g clip-path="url(#63f1117c79)"><g fill="#6f4e37" fill-opacity="1"><g transform="translate(0.463751, 245.169695)"><g><path d="M 107.765625 -228.734375 C 102.273438 -228.734375 97.550781 -226.804688 93.59375 -222.953125 C 89.644531 -219.109375 87.671875 -214.441406 87.671875 -208.953125 L 87.671875 -21.75 C 87.671875 -16.257812 89.644531 -11.59375 93.59375 -7.75 C 97.550781 -3.90625 102.273438 -1.984375 107.765625 -1.984375 L 107.765625 0 L 9.890625 0 L 9.890625 -1.984375 C 15.378906 -1.984375 20.046875 -3.90625 23.890625 -7.75 C 27.734375 -11.59375 29.65625 -16.257812 29.65625 -21.75 L 29.65625 -208.953125 C 29.65625 -214.441406 27.734375 -219.109375 23.890625 -222.953125 C 20.046875 -226.804688 15.378906 -228.734375 9.890625 -228.734375 L 9.890625 -230.703125 L 107.765625 -230.703125 Z M 107.765625 -228.734375 "/></g></g></g></g></g><g clip-path="url(#31e042107b)"><g transform="matrix(1, 0, 0, 1, 902, 0.000000000000042633)"><g clip-path="url(#6df4df1650)"><g fill="#6f4e37" fill-opacity="1"><g transform="translate(0.420937, 514.233488)"><g><path d="M 506.453125 -37.546875 C 506.453125 -29.347656 509.179688 -22.0625 514.640625 -15.6875 C 520.097656 -9.320312 526.695312 -5.457031 534.4375 -4.09375 L 534.4375 0 L 376.078125 0 L 376.078125 -4.09375 C 383.816406 -5.457031 390.414062 -9.320312 395.875 -15.6875 C 401.332031 -22.0625 404.0625 -29.347656 404.0625 -37.546875 L 404.0625 -238.890625 C 404.0625 -250.722656 407.019531 -260.050781 412.9375 -266.875 C 418.851562 -273.695312 424.769531 -280.179688 430.6875 -286.328125 C 436.601562 -292.472656 439.5625 -299.640625 439.5625 -307.828125 C 439.5625 -315.566406 435.125 -321.484375 426.25 -325.578125 C 417.375 -329.671875 406.335938 -331.71875 393.140625 -331.71875 C 373.578125 -331.71875 356.171875 -328.414062 340.921875 -321.8125 C 325.679688 -315.21875 316.015625 -310.328125 311.921875 -307.140625 C 321.929688 -293.035156 326.9375 -273.472656 326.9375 -248.453125 L 326.9375 -37.546875 C 326.9375 -29.347656 329.664062 -22.0625 335.125 -15.6875 C 340.59375 -9.320312 347.191406 -5.457031 354.921875 -4.09375 L 354.921875 0 L 196.578125 0 L 196.578125 -4.09375 C 204.304688 -5.457031 210.898438 -9.320312 216.359375 -15.6875 C 221.828125 -22.0625 224.5625 -29.347656 224.5625 -37.546875 L 224.5625 -238.890625 C 224.5625 -250.722656 227.515625 -260.050781 233.421875 -266.875 C 239.335938 -273.695312 245.253906 -280.179688 251.171875 -286.328125 C 257.085938 -292.472656 260.046875 -299.640625 260.046875 -307.828125 C 260.046875 -315.566406 255.722656 -321.484375 247.078125 -325.578125 C 238.429688 -329.671875 227.285156 -331.71875 213.640625 -331.71875 C 192.703125 -331.71875 170.632812 -326.484375 147.4375 -316.015625 L 147.4375 -37.546875 C 147.4375 -29.347656 150.164062 -22.0625 155.625 -15.6875 C 161.082031 -9.320312 167.679688 -5.457031 175.421875 -4.09375 L 175.421875 0 L 17.0625 0 L 17.0625 -4.09375 C 24.800781 -5.457031 31.398438 -9.320312 36.859375 -15.6875 C 42.316406 -22.0625 45.046875 -29.347656 45.046875 -37.546875 L 45.046875 -280.53125 C 45.046875 -289.175781 42.316406 -296.566406 36.859375 -302.703125 C 31.398438 -308.847656 24.800781 -312.601562 17.0625 -313.96875 L 17.0625 -318.0625 L 133.78125 -335.125 C 134.238281 -335.125 134.578125 -335.125 134.796875 -335.125 C 135.023438 -335.125 135.367188 -335.125 135.828125 -335.125 C 143.566406 -335.125 147.4375 -331.257812 147.4375 -323.53125 L 147.4375 -320.796875 C 159.257812 -326.710938 172.675781 -331.601562 187.6875 -335.46875 C 202.707031 -339.332031 217.953125 -341.492188 233.421875 -341.953125 C 248.898438 -342.410156 263.347656 -340.25 276.765625 -335.46875 C 290.191406 -330.695312 301.226562 -322.394531 309.875 -310.5625 C 326.257812 -321.476562 344.003906 -329.4375 363.109375 -334.4375 C 382.222656 -339.445312 399.289062 -341.953125 414.3125 -341.953125 C 430.6875 -341.953125 445.8125 -338.992188 459.6875 -333.078125 C 473.570312 -327.160156 484.835938 -317.488281 493.484375 -304.0625 C 502.128906 -290.644531 506.453125 -272.109375 506.453125 -248.453125 Z M 506.453125 -37.546875 "/></g></g></g></g></g></g></g></g></svg>