<svg xmlns="http://www.w3.org/2000/svg" xmlns:xlink="http://www.w3.org/1999/xlink" width="1920" zoomAndPan="magnify" viewBox="0 0 1440 809.999993" height="1080" preserveAspectRatio="xMidYMid meet" version="1.0"><defs><g/><clipPath id="f042656953"><rect x="0" width="247" y="0" height="495"/></clipPath><clipPath id="890104988e"><path d="M 356.675781 554.640625 L 540.703125 554.640625 L 540.703125 583.710938 L 356.675781 583.710938 Z M 356.675781 554.640625 " clip-rule="nonzero"/></clipPath><clipPath id="d4c7ce2d29"><path d="M 0.675781 0.640625 L 184.703125 0.640625 L 184.703125 29.710938 L 0.675781 29.710938 Z M 0.675781 0.640625 " clip-rule="nonzero"/></clipPath><clipPath id="d836a08e7f"><rect x="0" width="185" y="0" height="30"/></clipPath><clipPath id="24ceb65362"><path d="M 831 235.261719 L 913.503906 235.261719 L 913.503906 309.953125 L 831 309.953125 Z M 831 235.261719 " clip-rule="nonzero"/></clipPath><clipPath id="7ccf502774"><path d="M 912.296875 251.042969 C 909.695312 242.21875 901.308594 235.261719 891.386719 235.261719 C 883.058594 235.261719 875.820312 239.960938 872.164062 246.863281 C 868.503906 239.960938 861.269531 235.261719 852.941406 235.261719 C 842.5625 235.261719 833.488281 242.21875 831.703125 252.316406 C 827.1875 277.921875 855.828125 297.96875 872.226562 309.953125 C 887.390625 298.871094 919.726562 276.277344 912.296875 251.042969 Z M 912.296875 251.042969 " clip-rule="nonzero"/></clipPath><clipPath id="9d76dca7da"><path d="M 0.121094 0.261719 L 82.503906 0.261719 L 82.503906 74.953125 L 0.121094 74.953125 Z M 0.121094 0.261719 " clip-rule="nonzero"/></clipPath><clipPath id="4034a46db1"><path d="M 81.296875 16.042969 C 78.695312 7.21875 70.308594 0.261719 60.386719 0.261719 C 52.058594 0.261719 44.820312 4.960938 41.164062 11.863281 C 37.503906 4.960938 30.269531 0.261719 21.941406 0.261719 C 11.5625 0.261719 2.488281 7.21875 0.703125 17.316406 C -3.8125 42.921875 24.828125 62.96875 41.226562 74.953125 C 56.390625 63.871094 88.726562 41.277344 81.296875 16.042969 Z M 81.296875 16.042969 " clip-rule="nonzero"/></clipPath><clipPath id="3f9c31ef4d"><rect x="0" width="83" y="0" height="75"/></clipPath><clipPath id="e60ec8c456"><rect x="0" width="330" y="0" height="494"/></clipPath><clipPath id="848717c5df"><rect x="0" width="288" y="0" height="498"/></clipPath><clipPath id="773245f28c"><rect x="0" width="111" y="0" height="329"/></clipPath><clipPath id="f16fdfec11"><rect x="0" width="536" y="0" height="686"/></clipPath></defs><g transform="matrix(1, 0, 0, 1, 316, 122)"><g clip-path="url(#f042656953)"><g fill="#f6f4f0" fill-opacity="1"><g transform="translate(0.999883, 368.552902)"><g><path d="M 130.171875 -247.96875 C 150.960938 -247.96875 169.851562 -242.359375 186.84375 -231.140625 C 203.832031 -219.921875 217.441406 -204.820312 227.671875 -185.84375 C 237.898438 -166.875 243.015625 -145.84375 243.015625 -122.75 C 243.015625 -99.65625 237.898438 -78.617188 227.671875 -59.640625 C 217.441406 -40.671875 203.832031 -25.578125 186.84375 -14.359375 C 169.851562 -3.140625 150.960938 2.46875 130.171875 2.46875 C 109.378906 2.46875 90.488281 -3.140625 73.5 -14.359375 C 56.507812 -25.578125 42.898438 -40.671875 32.671875 -59.640625 C 22.441406 -78.617188 17.328125 -99.65625 17.328125 -122.75 C 17.328125 -145.84375 22.441406 -166.875 32.671875 -185.84375 C 42.898438 -204.820312 56.507812 -219.921875 73.5 -231.140625 C 90.488281 -242.359375 109.378906 -247.96875 130.171875 -247.96875 Z M 130.171875 -0.5 C 155.578125 -0.5 168.28125 -41.25 168.28125 -122.75 C 168.28125 -204.25 155.578125 -245 130.171875 -245 C 104.429688 -245 91.5625 -204.25 91.5625 -122.75 C 91.5625 -41.25 104.429688 -0.5 130.171875 -0.5 Z M 130.171875 -0.5 "/></g></g></g></g></g><g clip-path="url(#890104988e)"><g transform="matrix(1, 0, 0, 1, 356, 554)"><g clip-path="url(#d836a08e7f)"><g clip-path="url(#d4c7ce2d29)"><path fill="#f6f4f0" d="M 0.675781 0.640625 L 184.746094 0.640625 L 184.746094 29.710938 L 0.675781 29.710938 Z M 0.675781 0.640625 " fill-opacity="1" fill-rule="nonzero"/></g></g></g></g><g clip-path="url(#24ceb65362)"><g clip-path="url(#7ccf502774)"><g transform="matrix(1, 0, 0, 1, 831, 235)"><g clip-path="url(#3f9c31ef4d)"><g clip-path="url(#9d76dca7da)"><g clip-path="url(#4034a46db1)"><path fill="#f6f4f0" d="M 0.226562 0.261719 L 82.503906 0.261719 L 82.503906 74.953125 L 0.226562 74.953125 Z M 0.226562 0.261719 " fill-opacity="1" fill-rule="nonzero"/></g></g></g></g></g></g><g transform="matrix(1, 0, 0, 1, 0, 214)"><g clip-path="url(#e60ec8c456)"><g fill="#f6f4f0" fill-opacity="1"><g transform="translate(-10.146646, 367.931805)"><g><path d="M 182.140625 -346.46875 C 203.585938 -346.46875 223.710938 -342.007812 242.515625 -333.09375 C 261.328125 -324.1875 277.910156 -311.734375 292.265625 -295.734375 C 306.617188 -279.734375 317.835938 -261.253906 325.921875 -240.296875 C 334.003906 -219.347656 338.046875 -196.992188 338.046875 -173.234375 C 338.046875 -149.472656 334.003906 -127.113281 325.921875 -106.15625 C 317.835938 -85.207031 306.617188 -66.734375 292.265625 -50.734375 C 277.910156 -34.734375 261.328125 -22.273438 242.515625 -13.359375 C 223.710938 -4.453125 203.585938 0 182.140625 0 L 14.84375 0 L 14.84375 -2.96875 C 23.09375 -2.96875 30.101562 -5.851562 35.875 -11.625 C 41.65625 -17.40625 44.546875 -24.421875 44.546875 -32.671875 L 44.546875 -313.796875 C 44.546875 -322.046875 41.65625 -329.054688 35.875 -334.828125 C 30.101562 -340.609375 23.09375 -343.5 14.84375 -343.5 L 14.84375 -346.46875 Z M 147 -2.96875 C 160.53125 -2.96875 173.234375 -7.335938 185.109375 -16.078125 C 196.992188 -24.828125 207.472656 -37.035156 216.546875 -52.703125 C 225.617188 -68.378906 232.710938 -86.53125 237.828125 -107.15625 C 242.941406 -127.78125 245.5 -149.804688 245.5 -173.234375 C 245.5 -196.660156 242.941406 -218.6875 237.828125 -239.3125 C 232.710938 -259.9375 225.617188 -278.082031 216.546875 -293.75 C 207.472656 -309.425781 196.992188 -321.632812 185.109375 -330.375 C 173.234375 -339.125 160.53125 -343.5 147 -343.5 L 131.65625 -343.5 L 131.65625 -2.96875 Z M 147 -2.96875 "/></g></g></g></g></g><g transform="matrix(1, 0, 0, 1, 540, 213)"><g clip-path="url(#848717c5df)"><g fill="#f6f4f0" fill-opacity="1"><g transform="translate(0.703807, 372.97387)"><g><path d="M 282.609375 -95.515625 C 283.597656 -82.316406 280.875 -69.859375 274.4375 -58.140625 C 268.007812 -46.429688 258.691406 -36.285156 246.484375 -27.703125 C 234.273438 -19.128906 220.164062 -12.367188 204.15625 -7.421875 C 188.15625 -2.472656 171.25 0 153.4375 0 C 130.332031 0 108.960938 -3.789062 89.328125 -11.375 C 69.703125 -18.96875 54.03125 -29.195312 42.3125 -42.0625 C 30.601562 -54.9375 24.75 -69.457031 24.75 -85.625 C 24.75 -100.144531 29.941406 -112.597656 40.328125 -122.984375 C 50.722656 -133.378906 63.179688 -138.578125 77.703125 -138.578125 C 92.222656 -138.578125 104.675781 -133.378906 115.0625 -122.984375 C 125.457031 -112.597656 130.65625 -100.144531 130.65625 -85.625 C 130.65625 -76.382812 129.003906 -68.796875 125.703125 -62.859375 C 122.410156 -56.921875 118.703125 -51.96875 114.578125 -48 C 110.453125 -44.039062 106.988281 -40.25 104.1875 -36.625 C 101.382812 -33 100.476562 -28.875 101.46875 -24.25 C 102.78125 -17.976562 107.722656 -12.863281 116.296875 -8.90625 C 124.878906 -4.945312 137.257812 -2.96875 153.4375 -2.96875 C 162.007812 -2.96875 170.085938 -5.03125 177.671875 -9.15625 C 185.265625 -13.28125 191.453125 -18.890625 196.234375 -25.984375 C 201.023438 -33.078125 203.421875 -41.078125 203.421875 -49.984375 C 203.421875 -62.523438 199.128906 -74.40625 190.546875 -85.625 C 181.972656 -96.84375 170.921875 -107.8125 157.390625 -118.53125 C 143.859375 -129.257812 129.421875 -140.066406 114.078125 -150.953125 C 98.734375 -161.835938 84.296875 -173.21875 70.765625 -185.09375 C 57.242188 -196.976562 46.191406 -209.519531 37.609375 -222.71875 C 29.035156 -235.914062 24.75 -250.269531 24.75 -265.78125 C 24.75 -280.625 28.707031 -293.160156 36.625 -303.390625 C 44.539062 -313.617188 54.847656 -321.953125 67.546875 -328.390625 C 80.253906 -334.828125 93.945312 -339.445312 108.625 -342.25 C 123.3125 -345.050781 137.257812 -346.453125 150.46875 -346.453125 C 166.300781 -346.453125 180.15625 -345.296875 192.03125 -342.984375 C 203.914062 -340.679688 216.785156 -339.53125 230.640625 -339.53125 C 236.253906 -339.53125 241.285156 -340.023438 245.734375 -341.015625 C 250.191406 -342.003906 254.070312 -343.816406 257.375 -346.453125 L 260.34375 -346.453125 L 260.34375 -252.90625 C 260.34375 -252.90625 260.007812 -252.90625 259.34375 -252.90625 C 258.6875 -252.90625 258.03125 -252.90625 257.375 -252.90625 C 254.726562 -266.769531 249.113281 -280.628906 240.53125 -294.484375 C 231.957031 -308.347656 221.070312 -319.894531 207.875 -329.125 C 194.675781 -338.363281 179.5 -342.984375 162.34375 -342.984375 C 149.800781 -342.984375 138.578125 -339.765625 128.671875 -333.328125 C 118.773438 -326.898438 113.332031 -316.265625 112.34375 -301.421875 C 111.351562 -288.546875 114.570312 -276.664062 122 -265.78125 C 129.425781 -254.894531 139.40625 -244.414062 151.9375 -234.34375 C 164.476562 -224.28125 177.925781 -214.21875 192.28125 -204.15625 C 206.632812 -194.09375 220.410156 -183.617188 233.609375 -172.734375 C 246.804688 -161.847656 257.941406 -150.132812 267.015625 -137.59375 C 276.085938 -125.050781 281.285156 -111.023438 282.609375 -95.515625 Z M 282.609375 -95.515625 "/></g></g></g></g></g><g transform="matrix(1, 0, 0, 1, 813, 337)"><g clip-path="url(#773245f28c)"><g fill="#f6f4f0" fill-opacity="1"><g transform="translate(0.463869, 245.169724)"><g><path d="M 107.765625 -228.734375 C 102.273438 -228.734375 97.550781 -226.804688 93.59375 -222.953125 C 89.644531 -219.109375 87.671875 -214.441406 87.671875 -208.953125 L 87.671875 -21.75 C 87.671875 -16.257812 89.644531 -11.59375 93.59375 -7.75 C 97.550781 -3.90625 102.273438 -1.984375 107.765625 -1.984375 L 107.765625 0 L 9.890625 0 L 9.890625 -1.984375 C 15.378906 -1.984375 20.046875 -3.90625 23.890625 -7.75 C 27.734375 -11.59375 29.65625 -16.257812 29.65625 -21.75 L 29.65625 -208.953125 C 29.65625 -214.441406 27.734375 -219.109375 23.890625 -222.953125 C 20.046875 -226.804688 15.378906 -228.734375 9.890625 -228.734375 L 9.890625 -230.703125 L 107.765625 -230.703125 Z M 107.765625 -228.734375 "/></g></g></g></g></g><g transform="matrix(1, 0, 0, 1, 902, 65)"><g clip-path="url(#f16fdfec11)"><g fill="#f6f4f0" fill-opacity="1"><g transform="translate(0.420996, 514.233531)"><g><path d="M 506.453125 -37.546875 C 506.453125 -29.347656 509.179688 -22.0625 514.640625 -15.6875 C 520.097656 -9.320312 526.695312 -5.457031 534.4375 -4.09375 L 534.4375 0 L 376.078125 0 L 376.078125 -4.09375 C 383.816406 -5.457031 390.414062 -9.320312 395.875 -15.6875 C 401.332031 -22.0625 404.0625 -29.347656 404.0625 -37.546875 L 404.0625 -238.890625 C 404.0625 -250.722656 407.019531 -260.050781 412.9375 -266.875 C 418.851562 -273.695312 424.769531 -280.179688 430.6875 -286.328125 C 436.601562 -292.472656 439.5625 -299.640625 439.5625 -307.828125 C 439.5625 -315.566406 435.125 -321.484375 426.25 -325.578125 C 417.375 -329.671875 406.335938 -331.71875 393.140625 -331.71875 C 373.578125 -331.71875 356.171875 -328.414062 340.921875 -321.8125 C 325.679688 -315.21875 316.015625 -310.328125 311.921875 -307.140625 C 321.929688 -293.035156 326.9375 -273.472656 326.9375 -248.453125 L 326.9375 -37.546875 C 326.9375 -29.347656 329.664062 -22.0625 335.125 -15.6875 C 340.59375 -9.320312 347.191406 -5.457031 354.921875 -4.09375 L 354.921875 0 L 196.578125 0 L 196.578125 -4.09375 C 204.304688 -5.457031 210.898438 -9.320312 216.359375 -15.6875 C 221.828125 -22.0625 224.5625 -29.347656 224.5625 -37.546875 L 224.5625 -238.890625 C 224.5625 -250.722656 227.515625 -260.050781 233.421875 -266.875 C 239.335938 -273.695312 245.253906 -280.179688 251.171875 -286.328125 C 257.085938 -292.472656 260.046875 -299.640625 260.046875 -307.828125 C 260.046875 -315.566406 255.722656 -321.484375 247.078125 -325.578125 C 238.429688 -329.671875 227.285156 -331.71875 213.640625 -331.71875 C 192.703125 -331.71875 170.632812 -326.484375 147.4375 -316.015625 L 147.4375 -37.546875 C 147.4375 -29.347656 150.164062 -22.0625 155.625 -15.6875 C 161.082031 -9.320312 167.679688 -5.457031 175.421875 -4.09375 L 175.421875 0 L 17.0625 0 L 17.0625 -4.09375 C 24.800781 -5.457031 31.398438 -9.320312 36.859375 -15.6875 C 42.316406 -22.0625 45.046875 -29.347656 45.046875 -37.546875 L 45.046875 -280.53125 C 45.046875 -289.175781 42.316406 -296.566406 36.859375 -302.703125 C 31.398438 -308.847656 24.800781 -312.601562 17.0625 -313.96875 L 17.0625 -318.0625 L 133.78125 -335.125 C 134.238281 -335.125 134.578125 -335.125 134.796875 -335.125 C 135.023438 -335.125 135.367188 -335.125 135.828125 -335.125 C 143.566406 -335.125 147.4375 -331.257812 147.4375 -323.53125 L 147.4375 -320.796875 C 159.257812 -326.710938 172.675781 -331.601562 187.6875 -335.46875 C 202.707031 -339.332031 217.953125 -341.492188 233.421875 -341.953125 C 248.898438 -342.410156 263.347656 -340.25 276.765625 -335.46875 C 290.191406 -330.695312 301.226562 -322.394531 309.875 -310.5625 C 326.257812 -321.476562 344.003906 -329.4375 363.109375 -334.4375 C 382.222656 -339.445312 399.289062 -341.953125 414.3125 -341.953125 C 430.6875 -341.953125 445.8125 -338.992188 459.6875 -333.078125 C 473.570312 -327.160156 484.835938 -317.488281 493.484375 -304.0625 C 502.128906 -290.644531 506.453125 -272.109375 506.453125 -248.453125 Z M 506.453125 -37.546875 "/></g></g></g></g></g></svg>