<svg xmlns="http://www.w3.org/2000/svg" xmlns:xlink="http://www.w3.org/1999/xlink" width="2000" zoomAndPan="magnify" viewBox="0 0 1500 1499.999933" height="2000" preserveAspectRatio="xMidYMid meet" version="1.0"><defs><g/><clipPath id="a81741f995"><rect x="0" width="191" y="0" height="382"/></clipPath><clipPath id="4111987b32"><path d="M 496.605469 831.277344 L 638.878906 831.277344 L 638.878906 853.753906 L 496.605469 853.753906 Z M 496.605469 831.277344 " clip-rule="nonzero"/></clipPath><clipPath id="2c5efb43e0"><path d="M 0.605469 0.277344 L 142.878906 0.277344 L 142.878906 22.753906 L 0.605469 22.753906 Z M 0.605469 0.277344 " clip-rule="nonzero"/></clipPath><clipPath id="3a4be2754c"><rect x="0" width="143" y="0" height="23"/></clipPath><clipPath id="228591329c"><path d="M 863.261719 584.359375 L 927.101562 584.359375 L 927.101562 642.105469 L 863.261719 642.105469 Z M 863.261719 584.359375 " clip-rule="nonzero"/></clipPath><clipPath id="0b926f5f21"><path d="M 926.164062 596.5625 C 924.15625 589.738281 917.667969 584.359375 910 584.359375 C 903.558594 584.359375 897.964844 587.992188 895.136719 593.328125 C 892.308594 587.992188 886.714844 584.359375 880.277344 584.359375 C 872.253906 584.359375 865.234375 589.738281 863.859375 597.546875 C 860.363281 617.34375 882.507812 632.839844 895.1875 642.105469 C 906.910156 633.539062 931.910156 616.070312 926.164062 596.5625 Z M 926.164062 596.5625 " clip-rule="nonzero"/></clipPath><clipPath id="d497107971"><path d="M 0.28125 0.359375 L 64.101562 0.359375 L 64.101562 58.105469 L 0.28125 58.105469 Z M 0.28125 0.359375 " clip-rule="nonzero"/></clipPath><clipPath id="3a3c1a3f51"><path d="M 63.164062 12.5625 C 61.15625 5.738281 54.667969 0.359375 47 0.359375 C 40.558594 0.359375 34.964844 3.992188 32.136719 9.328125 C 29.308594 3.992188 23.714844 0.359375 17.277344 0.359375 C 9.253906 0.359375 2.234375 5.738281 0.859375 13.546875 C -2.636719 33.34375 19.507812 48.839844 32.1875 58.105469 C 43.910156 49.539062 68.910156 32.070312 63.164062 12.5625 Z M 63.164062 12.5625 " clip-rule="nonzero"/></clipPath><clipPath id="401a2d4eeb"><rect x="0" width="65" y="0" height="59"/></clipPath><clipPath id="76463fd7e0"><rect x="0" width="264" y="0" height="383"/></clipPath><clipPath id="b2a6c75fe1"><rect x="0" width="223" y="0" height="385"/></clipPath><clipPath id="9896855568"><rect x="0" width="277" y="0" height="61"/></clipPath><clipPath id="490e2b0b6a"><rect x="0" width="87" y="0" height="255"/></clipPath><clipPath id="d927bd6e96"><rect x="0" width="415" y="0" height="530"/></clipPath></defs><rect x="-150" width="1800" fill="#ffffff" y="-149.999993" height="1799.99992" fill-opacity="1"/><rect x="-150" width="1800" fill="#6f4e37" y="-149.999993" height="1799.99992" fill-opacity="1"/><g transform="matrix(1, 0, 0, 1, 465, 497)"><g clip-path="url(#a81741f995)"><g fill="#f6f4f0" fill-opacity="1"><g transform="translate(0.929583, 284.731148)"><g><path d="M 100.640625 -191.703125 C 116.710938 -191.703125 131.316406 -187.363281 144.453125 -178.6875 C 157.585938 -170.019531 168.109375 -158.351562 176.015625 -143.6875 C 183.929688 -129.019531 187.890625 -112.757812 187.890625 -94.90625 C 187.890625 -77.039062 183.929688 -60.773438 176.015625 -46.109375 C 168.109375 -31.441406 157.585938 -19.769531 144.453125 -11.09375 C 131.316406 -2.425781 116.710938 1.90625 100.640625 1.90625 C 84.566406 1.90625 69.960938 -2.425781 56.828125 -11.09375 C 43.691406 -19.769531 33.164062 -31.441406 25.25 -46.109375 C 17.34375 -60.773438 13.390625 -77.039062 13.390625 -94.90625 C 13.390625 -112.757812 17.34375 -129.019531 25.25 -143.6875 C 33.164062 -158.351562 43.691406 -170.019531 56.828125 -178.6875 C 69.960938 -187.363281 84.566406 -191.703125 100.640625 -191.703125 Z M 100.640625 -0.375 C 120.285156 -0.375 130.109375 -31.882812 130.109375 -94.90625 C 130.109375 -157.914062 120.285156 -189.421875 100.640625 -189.421875 C 80.742188 -189.421875 70.796875 -157.914062 70.796875 -94.90625 C 70.796875 -31.882812 80.742188 -0.375 100.640625 -0.375 Z M 100.640625 -0.375 "/></g></g></g></g></g><g clip-path="url(#4111987b32)"><g transform="matrix(1, 0, 0, 1, 496, 831)"><g clip-path="url(#3a4be2754c)"><g clip-path="url(#2c5efb43e0)"><path fill="#f6f4f0" d="M 0.605469 0.277344 L 142.910156 0.277344 L 142.910156 22.753906 L 0.605469 22.753906 Z M 0.605469 0.277344 " fill-opacity="1" fill-rule="nonzero"/></g></g></g></g><g clip-path="url(#228591329c)"><g clip-path="url(#0b926f5f21)"><g transform="matrix(1, 0, 0, 1, 863, 584)"><g clip-path="url(#401a2d4eeb)"><g clip-path="url(#d497107971)"><g clip-path="url(#3a3c1a3f51)"><path fill="#f6f4f0" d="M 0.488281 0.359375 L 64.101562 0.359375 L 64.101562 58.105469 L 0.488281 58.105469 Z M 0.488281 0.359375 " fill-opacity="1" fill-rule="nonzero"/></g></g></g></g></g></g><g transform="matrix(1, 0, 0, 1, 212, 567)"><g clip-path="url(#76463fd7e0)"><g fill="#f6f4f0" fill-opacity="1"><g transform="translate(1.006138, 285.377976)"><g><path d="M 140.8125 -267.859375 C 157.394531 -267.859375 172.957031 -264.414062 187.5 -257.53125 C 202.039062 -250.644531 214.859375 -241.015625 225.953125 -228.640625 C 237.054688 -216.265625 245.734375 -201.976562 251.984375 -185.78125 C 258.234375 -169.582031 261.359375 -152.300781 261.359375 -133.9375 C 261.359375 -115.5625 258.234375 -98.273438 251.984375 -82.078125 C 245.734375 -65.878906 237.054688 -51.59375 225.953125 -39.21875 C 214.859375 -26.84375 202.039062 -17.210938 187.5 -10.328125 C 172.957031 -3.441406 157.394531 0 140.8125 0 L 11.484375 0 L 11.484375 -2.296875 C 17.859375 -2.296875 23.273438 -4.523438 27.734375 -8.984375 C 32.203125 -13.453125 34.4375 -18.875 34.4375 -25.25 L 34.4375 -242.609375 C 34.4375 -248.984375 32.203125 -254.398438 27.734375 -258.859375 C 23.273438 -263.328125 17.859375 -265.5625 11.484375 -265.5625 L 11.484375 -267.859375 Z M 113.65625 -2.296875 C 124.113281 -2.296875 133.929688 -5.675781 143.109375 -12.4375 C 152.296875 -19.195312 160.394531 -28.632812 167.40625 -40.75 C 174.425781 -52.863281 179.910156 -66.894531 183.859375 -82.84375 C 187.816406 -98.789062 189.796875 -115.820312 189.796875 -133.9375 C 189.796875 -152.039062 187.816406 -169.066406 183.859375 -185.015625 C 179.910156 -200.960938 174.425781 -214.992188 167.40625 -227.109375 C 160.394531 -239.222656 152.296875 -248.660156 143.109375 -255.421875 C 133.929688 -262.179688 124.113281 -265.5625 113.65625 -265.5625 L 101.78125 -265.5625 L 101.78125 -2.296875 Z M 113.65625 -2.296875 "/></g></g></g></g></g><g transform="matrix(1, 0, 0, 1, 638, 567)"><g clip-path="url(#b2a6c75fe1)"><g fill="#f6f4f0" fill-opacity="1"><g transform="translate(0.879568, 288.502992)"><g><path d="M 218.5 -73.859375 C 219.257812 -63.648438 217.148438 -54.015625 212.171875 -44.953125 C 207.203125 -35.898438 200 -28.054688 190.5625 -21.421875 C 181.125 -14.796875 170.21875 -9.566406 157.84375 -5.734375 C 145.46875 -1.910156 132.394531 0 118.625 0 C 100.769531 0 84.25 -2.929688 69.0625 -8.796875 C 53.882812 -14.671875 41.769531 -22.582031 32.71875 -32.53125 C 23.664062 -42.476562 19.140625 -53.703125 19.140625 -66.203125 C 19.140625 -77.421875 23.15625 -87.046875 31.1875 -95.078125 C 39.21875 -103.117188 48.847656 -107.140625 60.078125 -107.140625 C 71.296875 -107.140625 80.921875 -103.117188 88.953125 -95.078125 C 96.992188 -87.046875 101.015625 -77.421875 101.015625 -66.203125 C 101.015625 -59.054688 99.738281 -53.1875 97.1875 -48.59375 C 94.644531 -44 91.773438 -40.171875 88.578125 -37.109375 C 85.390625 -34.054688 82.710938 -31.125 80.546875 -28.3125 C 78.378906 -25.507812 77.675781 -22.320312 78.4375 -18.75 C 79.457031 -13.90625 83.285156 -9.953125 89.921875 -6.890625 C 96.554688 -3.828125 106.125 -2.296875 118.625 -2.296875 C 125.257812 -2.296875 131.507812 -3.890625 137.375 -7.078125 C 143.238281 -10.265625 148.019531 -14.597656 151.71875 -20.078125 C 155.414062 -25.566406 157.265625 -31.753906 157.265625 -38.640625 C 157.265625 -48.335938 153.945312 -57.519531 147.3125 -66.1875 C 140.6875 -74.863281 132.144531 -83.347656 121.6875 -91.640625 C 111.226562 -99.929688 100.066406 -108.285156 88.203125 -116.703125 C 76.335938 -125.128906 65.175781 -133.929688 54.71875 -143.109375 C 44.257812 -152.296875 35.710938 -161.988281 29.078125 -172.1875 C 22.453125 -182.394531 19.140625 -193.492188 19.140625 -205.484375 C 19.140625 -216.960938 22.195312 -226.65625 28.3125 -234.5625 C 34.4375 -242.476562 42.410156 -248.921875 52.234375 -253.890625 C 62.054688 -258.867188 72.640625 -262.441406 83.984375 -264.609375 C 95.335938 -266.773438 106.117188 -267.859375 116.328125 -267.859375 C 128.566406 -267.859375 139.28125 -266.960938 148.46875 -265.171875 C 157.65625 -263.390625 167.601562 -262.5 178.3125 -262.5 C 182.65625 -262.5 186.546875 -262.878906 189.984375 -263.640625 C 193.429688 -264.410156 196.429688 -265.816406 198.984375 -267.859375 L 201.28125 -267.859375 L 201.28125 -195.53125 C 201.28125 -195.53125 201.023438 -195.53125 200.515625 -195.53125 C 200.003906 -195.53125 199.492188 -195.53125 198.984375 -195.53125 C 196.941406 -206.25 192.601562 -216.960938 185.96875 -227.671875 C 179.332031 -238.390625 170.910156 -247.320312 160.703125 -254.46875 C 150.503906 -261.613281 138.773438 -265.1875 125.515625 -265.1875 C 115.816406 -265.1875 107.140625 -262.695312 99.484375 -257.71875 C 91.835938 -252.738281 87.628906 -244.507812 86.859375 -233.03125 C 86.097656 -223.082031 88.585938 -213.898438 94.328125 -205.484375 C 100.066406 -197.066406 107.78125 -188.96875 117.46875 -181.1875 C 127.164062 -173.40625 137.5625 -165.625 148.65625 -157.84375 C 159.757812 -150.0625 170.410156 -141.960938 180.609375 -133.546875 C 190.816406 -125.128906 199.425781 -116.070312 206.4375 -106.375 C 213.457031 -96.6875 217.476562 -85.847656 218.5 -73.859375 Z M 218.5 -73.859375 "/></g></g></g></g></g><g transform="matrix(1, 0, 0, 1, 615, 886)"><g clip-path="url(#9896855568)"><g fill="#f6f4f0" fill-opacity="1"><g transform="translate(0.310059, 48.095075)"><g><path d="M 12.625 0.71875 C 11.632812 0.71875 10.5625 0.546875 9.40625 0.203125 C 8.25 -0.140625 7.148438 -0.691406 6.109375 -1.453125 C 5.066406 -2.222656 4.210938 -3.265625 3.546875 -4.578125 C 2.890625 -5.890625 2.5625 -7.535156 2.5625 -9.515625 C 2.5625 -12.304688 3.101562 -15.015625 4.1875 -17.640625 C 5.28125 -20.265625 6.789062 -22.71875 8.71875 -25 C 10.644531 -27.28125 12.859375 -29.28125 15.359375 -31 C 17.867188 -32.726562 20.546875 -34.078125 23.390625 -35.046875 C 26.234375 -36.015625 29.101562 -36.5 32 -36.5 C 33.363281 -36.5 34.828125 -36.394531 36.390625 -36.1875 C 37.960938 -35.988281 39.5 -35.769531 41 -35.53125 C 42.5 -35.289062 43.757812 -35.117188 44.78125 -35.015625 L 40.28125 -30.875 C 39.257812 -31.382812 38.050781 -31.976562 36.65625 -32.65625 C 35.257812 -33.34375 33.789062 -33.941406 32.25 -34.453125 C 30.71875 -34.960938 29.222656 -35.21875 27.765625 -35.21875 C 25.785156 -35.21875 23.910156 -34.757812 22.140625 -33.84375 C 20.367188 -32.925781 18.757812 -31.664062 17.3125 -30.0625 C 15.863281 -28.457031 14.617188 -26.625 13.578125 -24.5625 C 12.535156 -22.5 11.734375 -20.332031 11.171875 -18.0625 C 10.609375 -15.800781 10.328125 -13.5625 10.328125 -11.34375 C 10.328125 -9.03125 10.664062 -7.207031 11.34375 -5.875 C 12.03125 -4.550781 12.875 -3.613281 13.875 -3.0625 C 14.882812 -2.519531 15.863281 -2.25 16.8125 -2.25 C 17.90625 -2.25 19.148438 -2.582031 20.546875 -3.25 C 21.941406 -3.914062 23.375 -4.757812 24.84375 -5.78125 C 26.3125 -6.800781 27.679688 -7.847656 28.953125 -8.921875 C 30.234375 -9.992188 31.285156 -10.941406 32.109375 -11.765625 L 32.359375 -11.5 C 31.335938 -10.476562 30.082031 -9.285156 28.59375 -7.921875 C 27.113281 -6.554688 25.488281 -5.207031 23.71875 -3.875 C 21.945312 -2.550781 20.113281 -1.453125 18.21875 -0.578125 C 16.332031 0.285156 14.46875 0.71875 12.625 0.71875 Z M 12.625 0.71875 "/></g></g></g><g fill="#f6f4f0" fill-opacity="1"><g transform="translate(36.075543, 48.095075)"><g><path d="M 8.484375 0.359375 C 7.015625 0.359375 5.703125 0.128906 4.546875 -0.328125 C 3.390625 -0.785156 2.46875 -1.550781 1.78125 -2.625 C 1.101562 -3.707031 0.765625 -5.1875 0.765625 -7.0625 C 0.765625 -9.476562 1.316406 -11.773438 2.421875 -13.953125 C 3.535156 -16.140625 5.019531 -18.066406 6.875 -19.734375 C 8.726562 -21.398438 10.804688 -22.710938 13.109375 -23.671875 C 15.410156 -24.628906 17.753906 -25.109375 20.140625 -25.109375 C 21.609375 -25.109375 22.910156 -24.875 24.046875 -24.40625 C 25.191406 -23.945312 26.101562 -23.179688 26.78125 -22.109375 C 27.46875 -21.035156 27.8125 -19.5625 27.8125 -17.6875 C 27.8125 -15.269531 27.253906 -12.976562 26.140625 -10.8125 C 25.035156 -8.644531 23.554688 -6.71875 21.703125 -5.03125 C 19.847656 -3.34375 17.773438 -2.019531 15.484375 -1.0625 C 13.203125 -0.113281 10.867188 0.359375 8.484375 0.359375 Z M 11.703125 -0.765625 C 13.242188 -0.765625 14.609375 -1.316406 15.796875 -2.421875 C 16.992188 -3.535156 18 -4.984375 18.8125 -6.765625 C 19.632812 -8.554688 20.253906 -10.472656 20.671875 -12.515625 C 21.097656 -14.566406 21.3125 -16.515625 21.3125 -18.359375 C 21.3125 -20.367188 20.972656 -21.804688 20.296875 -22.671875 C 19.617188 -23.546875 18.457031 -23.984375 16.8125 -23.984375 C 15.28125 -23.984375 13.925781 -23.421875 12.75 -22.296875 C 11.570312 -21.171875 10.582031 -19.710938 9.78125 -17.921875 C 8.988281 -16.128906 8.378906 -14.207031 7.953125 -12.15625 C 7.523438 -10.113281 7.3125 -8.175781 7.3125 -6.34375 C 7.3125 -4.363281 7.648438 -2.9375 8.328125 -2.0625 C 9.015625 -1.195312 10.140625 -0.765625 11.703125 -0.765625 Z M 11.703125 -0.765625 "/></g></g></g><g fill="#f6f4f0" fill-opacity="1"><g transform="translate(64.636835, 48.095075)"><g><path d="M 30.671875 -24.1875 L 23.3125 -3.890625 C 23.207031 -3.578125 23.273438 -3.523438 23.515625 -3.734375 C 24.296875 -4.304688 25.128906 -4.941406 26.015625 -5.640625 C 26.910156 -6.347656 27.800781 -7.125 28.6875 -7.96875 L 28.828125 -7.875 L 22.390625 0.8125 L 15.796875 0 L 23.671875 -21.578125 C 23.941406 -22.253906 24.15625 -22.703125 24.3125 -22.921875 C 24.46875 -23.148438 24.457031 -23.265625 24.28125 -23.265625 C 24.113281 -23.265625 23.765625 -23.082031 23.234375 -22.71875 C 22.703125 -22.363281 21.882812 -21.675781 20.78125 -20.65625 C 19.675781 -19.632812 18.164062 -18.132812 16.25 -16.15625 C 14.34375 -14.175781 11.910156 -11.550781 8.953125 -8.28125 L 5.71875 0.71875 L -0.25 0 L 7.46875 -21.265625 C 7.664062 -21.847656 7.445312 -22.421875 6.8125 -22.984375 C 6.1875 -23.546875 4.90625 -24.113281 2.96875 -24.6875 L 2.96875 -24.796875 L 15.234375 -25.046875 L 13.59375 -21.265625 L 9.71875 -10.375 L 24.328125 -25.609375 C 25.179688 -25.648438 26.128906 -25.617188 27.171875 -25.515625 C 28.210938 -25.410156 29.085938 -25.242188 29.796875 -25.015625 C 30.515625 -24.796875 30.804688 -24.519531 30.671875 -24.1875 Z M 30.671875 -24.1875 "/></g></g></g><g fill="#f6f4f0" fill-opacity="1"><g transform="translate(95.854987, 48.095075)"><g><path d="M 29.90625 -41.71875 C 31.269531 -41.71875 32.660156 -41.570312 34.078125 -41.28125 C 35.492188 -40.988281 37.1875 -40.609375 39.15625 -40.140625 L 35.21875 -37.0625 C 33.550781 -37.84375 31.972656 -38.566406 30.484375 -39.234375 C 29.003906 -39.898438 27.566406 -40.234375 26.171875 -40.234375 C 24.710938 -40.234375 23.453125 -39.832031 22.390625 -39.03125 C 21.335938 -38.226562 20.441406 -37.171875 19.703125 -35.859375 C 18.972656 -34.546875 18.335938 -33.109375 17.796875 -31.546875 L 15.34375 -24.796875 L 20.609375 -24.796875 L 19.9375 -23.5625 L 14.921875 -23.5625 L 7.203125 -2.25 C 6.453125 -0.164062 5.367188 1.691406 3.953125 3.328125 C 2.546875 4.960938 0.941406 6.359375 -0.859375 7.515625 C -2.671875 8.671875 -4.566406 9.546875 -6.546875 10.140625 C -8.523438 10.742188 -10.429688 11.046875 -12.265625 11.046875 C -13.628906 11.046875 -15.019531 10.890625 -16.4375 10.578125 C -17.851562 10.273438 -19.550781 9.898438 -21.53125 9.453125 L -17.078125 6.390625 C -15.410156 7.140625 -13.921875 7.851562 -12.609375 8.53125 C -11.296875 9.21875 -9.9375 9.5625 -8.53125 9.5625 C -7.03125 9.5625 -5.757812 9.160156 -4.71875 8.359375 C -3.6875 7.554688 -2.800781 6.5 -2.0625 5.1875 C -1.332031 3.875 -0.695312 2.4375 -0.15625 0.875 L 7.828125 -21.3125 C 8.023438 -21.863281 7.800781 -22.421875 7.15625 -22.984375 C 6.507812 -23.546875 5.144531 -24.113281 3.0625 -24.6875 L 3.0625 -24.796875 L 9.046875 -24.796875 L 10.375 -28.421875 C 11.125 -30.472656 12.207031 -32.320312 13.625 -33.96875 C 15.039062 -35.625 16.648438 -37.019531 18.453125 -38.15625 C 20.265625 -39.300781 22.15625 -40.179688 24.125 -40.796875 C 26.101562 -41.410156 28.03125 -41.71875 29.90625 -41.71875 Z M 29.90625 -41.71875 "/></g></g></g><g fill="#f6f4f0" fill-opacity="1"><g transform="translate(114.708532, 48.095075)"><g><path d="M 12.015625 -12.328125 L 7.46875 -10.328125 C 7.394531 -9.816406 7.332031 -9.320312 7.28125 -8.84375 C 7.226562 -8.363281 7.203125 -7.90625 7.203125 -7.46875 C 7.203125 -6 7.378906 -4.894531 7.734375 -4.15625 C 8.097656 -3.425781 8.539062 -2.929688 9.0625 -2.671875 C 9.59375 -2.421875 10.117188 -2.296875 10.640625 -2.296875 C 11.796875 -2.296875 12.960938 -2.550781 14.140625 -3.0625 C 15.316406 -3.570312 16.488281 -4.203125 17.65625 -4.953125 C 18.832031 -5.703125 19.96875 -6.453125 21.0625 -7.203125 L 21.3125 -6.953125 C 20.425781 -6.128906 19.382812 -5.289062 18.1875 -4.4375 C 17 -3.59375 15.75 -2.800781 14.4375 -2.0625 C 13.125 -1.332031 11.8125 -0.742188 10.5 -0.296875 C 9.1875 0.140625 7.988281 0.359375 6.90625 0.359375 C 5.945312 0.359375 4.972656 0.15625 3.984375 -0.25 C 2.992188 -0.664062 2.175781 -1.382812 1.53125 -2.40625 C 0.882812 -3.425781 0.5625 -4.835938 0.5625 -6.640625 C 0.5625 -8.859375 1.097656 -11.054688 2.171875 -13.234375 C 3.242188 -15.421875 4.707031 -17.40625 6.5625 -19.1875 C 8.425781 -20.976562 10.554688 -22.410156 12.953125 -23.484375 C 15.359375 -24.566406 17.875 -25.109375 20.5 -25.109375 C 23.875 -25.109375 25.5625 -24.1875 25.5625 -22.34375 C 25.5625 -21.457031 25.226562 -20.59375 24.5625 -19.75 C 23.894531 -18.914062 23.023438 -18.125 21.953125 -17.375 C 20.878906 -16.625 19.71875 -15.929688 18.46875 -15.296875 C 17.226562 -14.671875 16.035156 -14.101562 14.890625 -13.59375 C 13.753906 -13.082031 12.796875 -12.660156 12.015625 -12.328125 Z M 16.671875 -23.984375 C 15.546875 -23.984375 14.492188 -23.609375 13.515625 -22.859375 C 12.546875 -22.109375 11.671875 -21.097656 10.890625 -19.828125 C 10.109375 -18.566406 9.4375 -17.195312 8.875 -15.71875 C 8.3125 -14.238281 7.894531 -12.75 7.625 -11.25 L 11.859375 -13.09375 C 13.191406 -13.664062 14.441406 -14.257812 15.609375 -14.875 C 16.785156 -15.488281 17.734375 -16.222656 18.453125 -17.078125 C 19.171875 -17.929688 19.53125 -18.988281 19.53125 -20.25 C 19.53125 -20.6875 19.460938 -21.191406 19.328125 -21.765625 C 19.191406 -22.347656 18.914062 -22.863281 18.5 -23.3125 C 18.09375 -23.757812 17.484375 -23.984375 16.671875 -23.984375 Z M 16.671875 -23.984375 "/></g></g></g><g fill="#f6f4f0" fill-opacity="1"><g transform="translate(139.437839, 48.095075)"><g><path d="M 10.28125 -32 L 20.453125 -39.984375 L 21.171875 -38.703125 L 10.640625 -31.34375 Z M 6.28125 0.8125 L -0.25 0 L 7.46875 -21.265625 C 7.664062 -21.847656 7.445312 -22.421875 6.8125 -22.984375 C 6.1875 -23.546875 4.90625 -24.113281 2.96875 -24.6875 L 2.96875 -24.796875 L 15.1875 -25.046875 L 13.59375 -21.265625 L 7.3125 -3.890625 C 7.207031 -3.679688 7.257812 -3.628906 7.46875 -3.734375 C 8.320312 -4.242188 9.15625 -4.863281 9.96875 -5.59375 C 10.789062 -6.332031 11.660156 -7.125 12.578125 -7.96875 L 12.734375 -7.875 Z M 6.28125 0.8125 "/></g></g></g><g fill="#f6f4f0" fill-opacity="1"><g transform="translate(154.561525, 48.095075)"><g><path d="M 20.859375 -23.5625 L 14.828125 -23.5625 L 6.640625 -0.921875 L 13.65625 -1.125 L 13.5 -0.921875 L 6.03125 0.8125 L 4.953125 0.8125 L 0.15625 -0.453125 L 1.4375 -3.53125 L 10.125 -27.40625 C 10.5 -28.488281 10.242188 -29.015625 9.359375 -28.984375 C 8.472656 -28.953125 6.613281 -28.546875 3.78125 -27.765625 L 3.984375 -28.0625 L 19.015625 -33.84375 L 17.6875 -31.546875 L 15.234375 -24.796875 L 21.578125 -24.796875 Z M 20.859375 -23.5625 "/></g></g></g><g fill="#f6f4f0" fill-opacity="1"><g transform="translate(173.568329, 48.095075)"><g><path d="M 21.53125 -3.734375 C 22.34375 -4.273438 23.175781 -4.90625 24.03125 -5.625 C 24.882812 -6.34375 25.769531 -7.125 26.6875 -7.96875 L 26.84375 -7.875 L 20.40625 0.8125 L 13.859375 0 L 22.1875 -23 C 21.644531 -23.34375 21.03125 -23.613281 20.34375 -23.8125 C 19.664062 -24.019531 18.984375 -24.125 18.296875 -24.125 C 16.734375 -24.125 15.273438 -23.578125 13.921875 -22.484375 C 12.578125 -21.398438 11.394531 -20 10.375 -18.28125 C 9.351562 -16.5625 8.550781 -14.726562 7.96875 -12.78125 C 7.394531 -10.832031 7.109375 -8.992188 7.109375 -7.265625 C 7.109375 -5.765625 7.300781 -4.644531 7.6875 -3.90625 C 8.082031 -3.175781 8.550781 -2.695312 9.09375 -2.46875 C 9.644531 -2.25 10.140625 -2.140625 10.578125 -2.140625 C 11.191406 -2.140625 11.765625 -2.234375 12.296875 -2.421875 C 12.828125 -2.609375 13.328125 -2.820312 13.796875 -3.0625 L 13.65625 -2.703125 C 12.289062 -1.546875 11.019531 -0.742188 9.84375 -0.296875 C 8.664062 0.140625 7.617188 0.359375 6.703125 0.359375 C 5.773438 0.359375 4.828125 0.15625 3.859375 -0.25 C 2.890625 -0.664062 2.078125 -1.375 1.421875 -2.375 C 0.773438 -3.382812 0.453125 -4.757812 0.453125 -6.5 C 0.453125 -8.675781 1.003906 -10.851562 2.109375 -13.03125 C 3.222656 -15.21875 4.757812 -17.222656 6.71875 -19.046875 C 8.675781 -20.867188 10.925781 -22.332031 13.46875 -23.4375 C 16.007812 -24.550781 18.695312 -25.109375 21.53125 -25.109375 C 22.3125 -25.109375 23.414062 -25.054688 24.84375 -24.953125 C 26.28125 -24.847656 27.59375 -24.660156 28.78125 -24.390625 L 21.3125 -3.890625 C 21.28125 -3.816406 21.289062 -3.765625 21.34375 -3.734375 C 21.394531 -3.703125 21.457031 -3.703125 21.53125 -3.734375 Z M 21.53125 -3.734375 "/></g></g></g><g fill="#f6f4f0" fill-opacity="1"><g transform="translate(202.793836, 48.095075)"><g><path d="M 23.0625 -25.046875 C 23.976562 -25.046875 24.828125 -24.84375 25.609375 -24.4375 L 17.640625 -16.15625 L 17.4375 -16.15625 C 18.625 -17.71875 19.191406 -19.007812 19.140625 -20.03125 C 19.085938 -21.0625 18.601562 -21.578125 17.6875 -21.578125 C 16.800781 -21.578125 15.929688 -21.179688 15.078125 -20.390625 C 14.222656 -19.609375 13.429688 -18.601562 12.703125 -17.375 C 11.972656 -16.15625 11.316406 -14.847656 10.734375 -13.453125 L 5.625 0.71875 L -0.3125 0 L 7.46875 -21.265625 C 7.664062 -21.847656 7.445312 -22.421875 6.8125 -22.984375 C 6.1875 -23.546875 4.90625 -24.113281 2.96875 -24.6875 L 2.96875 -24.796875 L 15.234375 -25.046875 L 13.59375 -21.265625 L 12.984375 -19.625 L 13.546875 -19.625 C 14.671875 -21.269531 16.09375 -22.582031 17.8125 -23.5625 C 19.539062 -24.550781 21.289062 -25.046875 23.0625 -25.046875 Z M 23.0625 -25.046875 "/></g></g></g><g fill="#f6f4f0" fill-opacity="1"><g transform="translate(225.27502, 48.095075)"><g><path d="M 10.28125 -32 L 20.453125 -39.984375 L 21.171875 -38.703125 L 10.640625 -31.34375 Z M 6.28125 0.8125 L -0.25 0 L 7.46875 -21.265625 C 7.664062 -21.847656 7.445312 -22.421875 6.8125 -22.984375 C 6.1875 -23.546875 4.90625 -24.113281 2.96875 -24.6875 L 2.96875 -24.796875 L 15.1875 -25.046875 L 13.59375 -21.265625 L 7.3125 -3.890625 C 7.207031 -3.679688 7.257812 -3.628906 7.46875 -3.734375 C 8.320312 -4.242188 9.15625 -4.863281 9.96875 -5.59375 C 10.789062 -6.332031 11.660156 -7.125 12.578125 -7.96875 L 12.734375 -7.875 Z M 6.28125 0.8125 "/></g></g></g><g fill="#f6f4f0" fill-opacity="1"><g transform="translate(240.398706, 48.095075)"><g><path d="M 21.53125 -3.734375 C 22.34375 -4.273438 23.175781 -4.90625 24.03125 -5.625 C 24.882812 -6.34375 25.769531 -7.125 26.6875 -7.96875 L 26.84375 -7.875 L 20.40625 0.8125 L 13.859375 0 L 22.1875 -23 C 21.644531 -23.34375 21.03125 -23.613281 20.34375 -23.8125 C 19.664062 -24.019531 18.984375 -24.125 18.296875 -24.125 C 16.734375 -24.125 15.273438 -23.578125 13.921875 -22.484375 C 12.578125 -21.398438 11.394531 -20 10.375 -18.28125 C 9.351562 -16.5625 8.550781 -14.726562 7.96875 -12.78125 C 7.394531 -10.832031 7.109375 -8.992188 7.109375 -7.265625 C 7.109375 -5.765625 7.300781 -4.644531 7.6875 -3.90625 C 8.082031 -3.175781 8.550781 -2.695312 9.09375 -2.46875 C 9.644531 -2.25 10.140625 -2.140625 10.578125 -2.140625 C 11.191406 -2.140625 11.765625 -2.234375 12.296875 -2.421875 C 12.828125 -2.609375 13.328125 -2.820312 13.796875 -3.0625 L 13.65625 -2.703125 C 12.289062 -1.546875 11.019531 -0.742188 9.84375 -0.296875 C 8.664062 0.140625 7.617188 0.359375 6.703125 0.359375 C 5.773438 0.359375 4.828125 0.15625 3.859375 -0.25 C 2.890625 -0.664062 2.078125 -1.375 1.421875 -2.375 C 0.773438 -3.382812 0.453125 -4.757812 0.453125 -6.5 C 0.453125 -8.675781 1.003906 -10.851562 2.109375 -13.03125 C 3.222656 -15.21875 4.757812 -17.222656 6.71875 -19.046875 C 8.675781 -20.867188 10.925781 -22.332031 13.46875 -23.4375 C 16.007812 -24.550781 18.695312 -25.109375 21.53125 -25.109375 C 22.3125 -25.109375 23.414062 -25.054688 24.84375 -24.953125 C 26.28125 -24.847656 27.59375 -24.660156 28.78125 -24.390625 L 21.3125 -3.890625 C 21.28125 -3.816406 21.289062 -3.765625 21.34375 -3.734375 C 21.394531 -3.703125 21.457031 -3.703125 21.53125 -3.734375 Z M 21.53125 -3.734375 "/></g></g></g></g></g><g transform="matrix(1, 0, 0, 1, 849, 663)"><g clip-path="url(#490e2b0b6a)"><g fill="#f6f4f0" fill-opacity="1"><g transform="translate(0.755738, 189.56195)"><g><path d="M 83.328125 -176.84375 C 79.078125 -176.84375 75.421875 -175.351562 72.359375 -172.375 C 69.304688 -169.40625 67.78125 -165.796875 67.78125 -161.546875 L 67.78125 -16.8125 C 67.78125 -12.570312 69.304688 -8.960938 72.359375 -5.984375 C 75.421875 -3.015625 79.078125 -1.53125 83.328125 -1.53125 L 83.328125 0 L 7.640625 0 L 7.640625 -1.53125 C 11.890625 -1.53125 15.5 -3.015625 18.46875 -5.984375 C 21.445312 -8.960938 22.9375 -12.570312 22.9375 -16.8125 L 22.9375 -161.546875 C 22.9375 -165.796875 21.445312 -169.40625 18.46875 -172.375 C 15.5 -175.351562 11.890625 -176.84375 7.640625 -176.84375 L 7.640625 -178.375 L 83.328125 -178.375 Z M 83.328125 -176.84375 "/></g></g></g></g></g><g transform="matrix(1, 0, 0, 1, 918, 453)"><g clip-path="url(#d927bd6e96)"><g fill="#f6f4f0" fill-opacity="1"><g transform="translate(0.530345, 397.291886)"><g><path d="M 391.546875 -29.015625 C 391.546875 -22.691406 393.65625 -17.066406 397.875 -12.140625 C 402.09375 -7.210938 407.191406 -4.222656 413.171875 -3.171875 L 413.171875 0 L 290.75 0 L 290.75 -3.171875 C 296.726562 -4.222656 301.828125 -7.210938 306.046875 -12.140625 C 310.273438 -17.066406 312.390625 -22.691406 312.390625 -29.015625 L 312.390625 -184.6875 C 312.390625 -193.832031 314.675781 -201.039062 319.25 -206.3125 C 323.820312 -211.59375 328.394531 -216.609375 332.96875 -221.359375 C 337.539062 -226.109375 339.828125 -231.648438 339.828125 -237.984375 C 339.828125 -243.960938 336.394531 -248.535156 329.53125 -251.703125 C 322.675781 -254.867188 314.148438 -256.453125 303.953125 -256.453125 C 288.816406 -256.453125 275.359375 -253.898438 263.578125 -248.796875 C 251.796875 -243.703125 244.320312 -239.921875 241.15625 -237.453125 C 248.894531 -226.546875 252.765625 -211.421875 252.765625 -192.078125 L 252.765625 -29.015625 C 252.765625 -22.691406 254.875 -17.066406 259.09375 -12.140625 C 263.3125 -7.210938 268.410156 -4.222656 274.390625 -3.171875 L 274.390625 0 L 151.96875 0 L 151.96875 -3.171875 C 157.945312 -4.222656 163.046875 -7.210938 167.265625 -12.140625 C 171.492188 -17.066406 173.609375 -22.691406 173.609375 -29.015625 L 173.609375 -184.6875 C 173.609375 -193.832031 175.894531 -201.039062 180.46875 -206.3125 C 185.039062 -211.59375 189.613281 -216.609375 194.1875 -221.359375 C 198.757812 -226.109375 201.046875 -231.648438 201.046875 -237.984375 C 201.046875 -243.960938 197.703125 -248.535156 191.015625 -251.703125 C 184.335938 -254.867188 175.722656 -256.453125 165.171875 -256.453125 C 148.984375 -256.453125 131.921875 -252.40625 113.984375 -244.3125 L 113.984375 -29.015625 C 113.984375 -22.691406 116.09375 -17.066406 120.3125 -12.140625 C 124.53125 -7.210938 129.628906 -4.222656 135.609375 -3.171875 L 135.609375 0 L 13.1875 0 L 13.1875 -3.171875 C 19.164062 -4.222656 24.265625 -7.210938 28.484375 -12.140625 C 32.710938 -17.066406 34.828125 -22.691406 34.828125 -29.015625 L 34.828125 -216.875 C 34.828125 -223.5625 32.710938 -229.28125 28.484375 -234.03125 C 24.265625 -238.78125 19.164062 -241.679688 13.1875 -242.734375 L 13.1875 -245.90625 L 103.421875 -259.09375 C 103.773438 -259.09375 104.039062 -259.09375 104.21875 -259.09375 C 104.394531 -259.09375 104.660156 -259.09375 105.015625 -259.09375 C 110.992188 -259.09375 113.984375 -256.101562 113.984375 -250.125 L 113.984375 -248.015625 C 123.128906 -252.585938 133.503906 -256.367188 145.109375 -259.359375 C 156.722656 -262.347656 168.507812 -264.019531 180.46875 -264.375 C 192.425781 -264.726562 203.59375 -263.054688 213.96875 -259.359375 C 224.351562 -255.660156 232.882812 -249.238281 239.5625 -240.09375 C 252.226562 -248.539062 265.945312 -254.695312 280.71875 -258.5625 C 295.5 -262.4375 308.695312 -264.375 320.3125 -264.375 C 332.96875 -264.375 344.660156 -262.085938 355.390625 -257.515625 C 366.117188 -252.941406 374.828125 -245.460938 381.515625 -235.078125 C 388.203125 -224.703125 391.546875 -210.367188 391.546875 -192.078125 Z M 391.546875 -29.015625 "/></g></g></g></g></g></svg>